<svg xmlns="http://www.w3.org/2000/svg" xmlns:xlink="http://www.w3.org/1999/xlink" width="100" height="55" viewBox="0 0 100 55">
  <defs>
    <clipPath id="clip-path">
      <path id="soft-skill_icon" d="M8,0H92a8,8,0,0,1,8,8V47a8,8,0,0,1-8,8H8a8,8,0,0,1-8-8V8A8,8,0,0,1,8,0Z" transform="translate(201)" fill="#fff" stroke="#707070" stroke-width="1"/>
    </clipPath>
  </defs>
  <g id="additionals" transform="translate(-201)" clip-path="url(#clip-path)">
    <g id="student" transform="translate(223.5)">
      <g id="Group_20" data-name="Group 20">
        <path id="Path_48" data-name="Path 48" d="M44.335,36.328V30.6l-2.416.94-.007-.016-.058-.1a6.219,6.219,0,0,0-4.109-2.75L31.93,27.613v-.459a8.876,8.876,0,0,0,4.263-5.963,3.55,3.55,0,0,0,2.826-3.471V8.969a5.556,5.556,0,0,0-3.969-5.331L34.606,3.2A10.91,10.91,0,0,0,15.981,10.91v6.811a3.55,3.55,0,0,0,2.826,3.471,8.877,8.877,0,0,0,4.263,5.963v.459L17.256,28.67a6.222,6.222,0,0,0-4.108,2.748l-.053.129-2.43-.945v5.726a2.661,2.661,0,0,0-2.658,2.658V42.53a2.661,2.661,0,0,0,2.658,2.658v3.264L27.5,55l16.835-6.548V45.188a2.661,2.661,0,0,0,2.658-2.658V38.986A2.661,2.661,0,0,0,44.335,36.328ZM33.591,29.717l3.837.7a4.439,4.439,0,0,1,2.8,1.786l-8.572,3.333Zm-8.673-1.75a8.827,8.827,0,0,0,5.166,0L27.5,29.9Zm1.234,3.14-1.808,1.808L23.17,29.4l.564-.1ZM31.266,29.3l.564.1-1.173,3.518-1.808-1.808ZM36.36,19.247V16.2a1.757,1.757,0,0,1,0,3.052Zm-17.721,0a1.757,1.757,0,0,1,0-3.052Zm0-5.956V14.3a3.514,3.514,0,0,0-.886.367V10.91a9.138,9.138,0,0,1,15.6-6.461l.781.782.238.058a3.787,3.787,0,0,1,2.873,3.68v5.7a3.482,3.482,0,0,0-.886-.367V13.291h-2.81a7.707,7.707,0,0,1-6.136-3.067l-.7-.941L24.95,11.044a7.623,7.623,0,0,1-5.424,2.246Zm1.772,6.2V15.022A9.378,9.378,0,0,0,26.2,12.3l.345-.345a9.491,9.491,0,0,0,7,3.11h1.038v4.43a7.088,7.088,0,0,1-14.177,0ZM17.573,30.414l3.837-.7,1.939,5.817L14.774,32.2A4.438,4.438,0,0,1,17.573,30.414ZM9.779,42.53V38.986a.887.887,0,0,1,.886-.886,2.658,2.658,0,1,1,0,5.316A.887.887,0,0,1,9.779,42.53ZM26.614,52.753,12.437,47.241V44.812a4.421,4.421,0,0,0,0-8.109v-3.51l14.177,5.513ZM23.983,35.782,27.5,32.264l3.517,3.517L27.5,37.149ZM42.563,47.24,28.386,52.752V38.706l14.177-5.513V36.7a4.421,4.421,0,0,0,0,8.109Zm2.658-4.71a.887.887,0,0,1-.886.886,2.658,2.658,0,0,1,0-5.316.887.887,0,0,1,.886.886Z" fill="#fff"/>
      </g>
    </g>
  </g>
</svg>
