<svg xmlns="http://www.w3.org/2000/svg" width="58.393" height="58" viewBox="0 0 58.393 58"><g transform="translate(-0.15 -0.693)"><path d="M29.347.693a19.511,19.511,0,0,0-6.167,38.02c.975.181,1.333-.423,1.333-.939,0-.465-.018-2-.027-3.632-5.428,1.18-6.573-2.3-6.573-2.3a5.166,5.166,0,0,0-2.166-2.855c-1.77-1.211.133-1.186.133-1.186a4.1,4.1,0,0,1,2.991,2.011,4.153,4.153,0,0,0,5.677,1.621,4.157,4.157,0,0,1,1.239-2.609c-4.333-.493-8.888-2.166-8.888-9.641a7.55,7.55,0,0,1,2.01-5.237A7.011,7.011,0,0,1,19.1,8.783s1.638-.524,5.365,2a18.5,18.5,0,0,1,9.771,0c3.723-2.524,5.359-2,5.359-2a7,7,0,0,1,.192,5.163,7.533,7.533,0,0,1,2.008,5.237c0,7.493-4.564,9.142-8.908,9.625a4.664,4.664,0,0,1,1.323,3.613c0,2.61-.022,4.711-.022,5.353,0,.518.351,1.127,1.34.935A19.51,19.51,0,0,0,29.347.693Z" fill="#fff" fill-rule="evenodd"/><path d="M17.228,28.7c-.044.1-.2.126-.335.06s-.221-.2-.175-.293.194-.127.336-.061.223.2.174.294Zm-.24-.178,1.03,1.06c-.093.086-.275.046-.4-.091s-.151-.318-.057-.405.272-.046.4.09.154.318.056.405Zm-.186-.2.955,1.323c-.119.083-.315.006-.436-.168s-.12-.381,0-.465.314-.008.436.164.12.385,0,.47Zm0,0,1.054,1.086c-.107.118-.335.086-.5-.075a.375.375,0,0,1-.111-.5c.109-.118.337-.085.505.075s.221.381.107.5Zm0,0,1.455.63c-.048.153-.267.222-.488.158s-.365-.246-.321-.4.267-.226.489-.157.365.243.319.4Zm0,0,1.6.117c.006.16-.182.294-.414.3s-.422-.125-.425-.283.183-.294.416-.3.422.125.422.284Zm0,0,1.486-.253c.028.157-.133.318-.364.361s-.436-.055-.465-.211.136-.321.362-.363.437.054.466.214Zm0,0" fill="#fff"/><path d="M11.4,49.661H6.491a.229.229,0,0,0-.229.229v2.4a.229.229,0,0,0,.229.229H8.4V55.5a5.791,5.791,0,0,1-1.619.147c-1.4,0-3.36-.512-3.36-4.818s2.04-4.874,3.954-4.874a7.761,7.761,0,0,1,2.826.432.232.232,0,0,0,.275-.226l.547-2.318a.215.215,0,0,0-.088-.179c-.185-.132-1.31-.761-4.154-.761C3.511,42.9.15,44.3.15,51s3.847,7.7,7.089,7.7a7.98,7.98,0,0,0,4.313-1.147.2.2,0,0,0,.074-.174V49.89a.229.229,0,0,0-.229-.229Zm25.06-6.187H33.694a.229.229,0,0,0-.228.231v5.339H29.16V43.705a.229.229,0,0,0-.228-.231H26.169a.229.229,0,0,0-.228.231V58.163a.23.23,0,0,0,.228.231h2.763a.229.229,0,0,0,.228-.231V51.979h4.307l-.007,6.184a.23.23,0,0,0,.229.231h2.769a.229.229,0,0,0,.228-.231V43.7a.228.228,0,0,0-.228-.23ZM14.829,43.8a1.8,1.8,0,1,0,1.781,1.8A1.789,1.789,0,0,0,14.829,43.8Zm1.355,4.406H13.431a.263.263,0,0,0-.239.257v9.562c0,.281.175.365.4.365h2.481c.273,0,.339-.134.339-.369V48.44a.229.229,0,0,0-.228-.23Zm31,.022H44.443a.229.229,0,0,0-.227.231v7.089a3.1,3.1,0,0,1-1.685.509c-.988,0-1.25-.448-1.25-1.416V48.462a.229.229,0,0,0-.228-.231H38.27a.23.23,0,0,0-.228.231v6.65c0,2.875,1.6,3.578,3.807,3.578a6.424,6.424,0,0,0,3.267-1,5.587,5.587,0,0,0,.1.589.242.242,0,0,0,.2.125l1.77-.008a.23.23,0,0,0,.229-.231V48.46a.231.231,0,0,0-.229-.23Zm7.494-.325a5.156,5.156,0,0,0-2.616.695V43.7a.229.229,0,0,0-.228-.231h-2.77a.229.229,0,0,0-.229.231V58.163a.229.229,0,0,0,.229.231h1.922a.227.227,0,0,0,.2-.123A4.577,4.577,0,0,0,51.3,57.6a4.958,4.958,0,0,0,3.278,1.073c2.517,0,3.962-1.277,3.962-5.733s-2.306-5.038-3.865-5.038ZM53.6,56.052a3.288,3.288,0,0,1-1.6-.46V51.013a3.667,3.667,0,0,1,1.417-.46c.987-.088,1.939.21,1.939,2.565,0,2.484-.429,2.974-1.759,2.934ZM24.392,56c-.121,0-.43.049-.747.049-1.018,0-1.363-.473-1.363-1.086V50.9h2.073a.229.229,0,0,0,.229-.231V48.438a.229.229,0,0,0-.229-.23H22.282l0-2.738c0-.1-.053-.156-.173-.156H19.28c-.109,0-.168.049-.168.154V48.3s-1.416.342-1.511.369a.229.229,0,0,0-.165.22v1.778a.229.229,0,0,0,.228.231h1.448v4.277c0,3.178,2.229,3.49,3.733,3.49a6.3,6.3,0,0,0,1.644-.271.214.214,0,0,0,.13-.208l0-1.956a.234.234,0,0,0-.229-.23Z" fill="#fff"/></g></svg>