<svg xmlns="http://www.w3.org/2000/svg" xmlns:xlink="http://www.w3.org/1999/xlink" width="100" height="80" viewBox="0 0 100 80"><defs><clipPath id="a"><rect width="100" height="80" transform="translate(0 -0.199)" fill="#a9aeb3" stroke="#707070" stroke-width="1"/></clipPath></defs><g transform="translate(0 0.199)" clip-path="url(#a)"><g transform="translate(21.584)"><path d="M56.832,354.393H0l5.328,57.776,23.085,6.548L51.5,412.169Z" transform="translate(0 -338.717)" fill="#e6a329"/><path d="M642.306,460.805v54.72l18.7-5.3,4.55-49.421Z" transform="translate(-613.893 -440.421)" fill="#f1bf22"/><path d="M314.045,621.038H285.286l-2,21.63.041-.135h24.432l-.8,9.152-7.8,2.243-7.91-2.279-.474-5.539H283.6l1.024,11.068,14.54,4.128,14.547-4.128,2-21.725h-25.93l.333-7.238h17.99l.269,4.147h7.241Z" transform="translate(-270.752 -593.566)" fill="#fff"/><path d="M299.171,621.038H285.286l-2,21.63.041-.135h15.846v-7.056H290.8l.333-7.238h8.041ZM290.8,646.114h-7.2l1.024,11.062,14.54,4.123v-7.361l-7.91-2.284Z" transform="translate(-270.752 -593.566)" fill="#ebebeb"/><path d="M408.065,7.155h-5.059v3.632h8.681V0H408.07ZM424.18.058h-8.82V3.834c1.178,1.178,1.792,1.744,3.527,3.45h-3.527v3.443h8.819V7.29l-3.523-3.45h3.527Z" transform="translate(-385.178)" fill="#fff"/></g></g></svg>