<svg xmlns="http://www.w3.org/2000/svg" width="186.373" height="114.082" viewBox="0 0 186.373 114.082"><g transform="translate(0 0)"><path d="M118.711,162.61a6.791,6.791,0,0,1-2.6-4.409l-.883-5.744H87.085L86.2,158.2a6.781,6.781,0,0,1-2.6,4.409c-2.351,1.764-4.21,3.276-2.351,3.532,1.789.245,18.663.022,19.908,0,1.248.022,18.118.245,19.909,0C122.919,165.886,121.06,164.378,118.711,162.61Z" transform="translate(-21.35 -55.658)" fill="#fff"/><path d="M54.176,115.812A4.772,4.772,0,0,0,49.448,111H27a4.772,4.772,0,0,0-4.729,4.813v50.526A4.771,4.771,0,0,0,27,171.152H49.45a4.772,4.772,0,0,0,4.728-4.814V115.812Zm-18.3.6H40.6a.6.6,0,0,1,0,1.2H35.877a.6.6,0,0,1,0-1.2Zm2.167,51.892a2.407,2.407,0,1,1,2.364-2.407A2.386,2.386,0,0,1,38.043,168.306Zm13.179-6.777h-26v-40.3h26v40.3Z" transform="translate(-22.267 -57.07)" fill="#fff"/><path d="M200.079,84.231H151.451a6.689,6.689,0,0,0-6.63,6.749v70.851a6.693,6.693,0,0,0,6.63,6.752h48.628a6.691,6.691,0,0,0,6.63-6.752V90.978A6.689,6.689,0,0,0,200.079,84.231Zm-33.834,80.6a3.373,3.373,0,1,1,3.309-3.37A3.344,3.344,0,0,1,166.244,164.828Zm9.519,0a3.373,3.373,0,1,1,3.314-3.37A3.342,3.342,0,0,1,175.763,164.828Zm9.528,0a3.373,3.373,0,1,1,3.312-3.37A3.34,3.34,0,0,1,185.292,164.828Zm17.273-9.748h-53.6V90.133h53.6V155.08Z" transform="translate(-20.336 -57.981)" fill="#fff"/><path d="M161.658,79.4h8.15V64.378a5.483,5.483,0,0,0-5.435-5.533H39.4a5.484,5.484,0,0,0-5.435,5.533v42.707H42.12V67.143H161.658V79.4Z" transform="translate(-22.083 -58.846)" fill="#fff"/><path d="M59.186,131.059v16.594H140.58V131.059Zm42.3,12.092a3.795,3.795,0,1,1,3.727-3.795A3.763,3.763,0,0,1,101.489,143.151Z" transform="translate(-21.685 -56.386)" fill="#fff"/></g></svg>