<svg xmlns="http://www.w3.org/2000/svg" xmlns:xlink="http://www.w3.org/1999/xlink" width="100" height="55" viewBox="0 0 100 55">
  <defs>
    <clipPath id="clip-path">
      <path id="soft-skill_icon" d="M8,0H92a8,8,0,0,1,8,8V47a8,8,0,0,1-8,8H8a8,8,0,0,1-8-8V8A8,8,0,0,1,8,0Z" transform="translate(183.187)" fill="#fff" stroke="#707070" stroke-width="1"/>
    </clipPath>
  </defs>
  <g id="softskills" transform="translate(-183.187)" clip-path="url(#clip-path)">
    <path id="team" d="M55,23.064H53.007l-2.971,1.563a4.41,4.41,0,0,0-1.057-.435l-3.737-.935v-.425A6.23,6.23,0,0,0,47.9,17.742V16.191a6.374,6.374,0,0,0-6.019-6.431c-.168,0-.334,0-.5.01L42.352,7.5l-4.7-4.7-2.769,1.8a15.005,15.005,0,0,0-3.321-1.377L30.881,0H24.12l-.684,3.232a14.988,14.988,0,0,0-3.321,1.377l-2.769-1.8L12.653,7.5l.953,2.27c-.036,0-.071-.008-.107-.009a6.212,6.212,0,0,0-6.4,6.206v1.774a6.227,6.227,0,0,0,2.661,5.09v.426l-2.438.609L2.9,21.29H0V39.672l8.727,2.909h1.7l.212-.743,2.675,1.606a2.762,2.762,0,0,0,2.663,2.676,2.762,2.762,0,0,0,2.661,2.661A2.762,2.762,0,0,0,21.3,51.442a2.759,2.759,0,0,0,4.314,2.19l.786.694A2.7,2.7,0,0,0,28.185,55h.164a2.7,2.7,0,0,0,2.7-2.665,2.7,2.7,0,0,0,2.661-2.661,2.7,2.7,0,0,0,2.661-2.664,2.728,2.728,0,0,0,2.665-2.722,2.6,2.6,0,0,0-.013-.266L55,36.032Zm-8.871-6.873v1.551a4.453,4.453,0,0,1-2.22,3.839l-.444.256,0,2.807L47.9,25.751l-9.755,5.135V28.5a4.414,4.414,0,0,0-1.27-3.091l3.045-.761V21.835l-.443-.256a4.448,4.448,0,0,1-2.219-3.837V15.968a4.435,4.435,0,0,1,4.573-4.433,4.587,4.587,0,0,1,4.3,4.656Zm-17.291,14-4.016-1.283a10.955,10.955,0,0,0-5.684-.259l-.509.113V28.5a2.659,2.659,0,0,1,2.015-2.582l5.081-1.27V21.835l-.443-.256a4.448,4.448,0,0,1-2.219-3.837V15.968a4.435,4.435,0,0,1,4.573-4.433,4.587,4.587,0,0,1,4.3,4.656v1.551a4.453,4.453,0,0,1-2.22,3.839l-.444.256,0,2.807,5.08,1.27A2.659,2.659,0,0,1,36.371,28.5V31.82l-.219.115h-.544l-5.454-1.558a5.592,5.592,0,0,0-1.317-.188ZM18.828,13.277a9.751,9.751,0,0,1,17.308-.071,6.17,6.17,0,0,0-.652,2.762v1.774a6.227,6.227,0,0,0,2.661,5.09v.426l-3.548.888-3.549-.888v-.425a6.23,6.23,0,0,0,2.662-5.091V16.191a6.374,6.374,0,0,0-6.019-6.431,6.211,6.211,0,0,0-6.4,6.207v1.774a6.227,6.227,0,0,0,2.661,5.09v.426l-3.548.888-3.549-.888v-.425a6.23,6.23,0,0,0,2.662-5.091V16.191a6.538,6.538,0,0,0-.688-2.914Zm-4.08-5.365,2.834-2.834L20.077,6.7l.477-.293A13.238,13.238,0,0,1,24.4,4.815l.546-.131.617-2.91h3.885l.616,2.909.546.13a13.25,13.25,0,0,1,3.841,1.594l.477.293,2.495-1.623,2.831,2.832-1.006,2.356a6.2,6.2,0,0,0-1.873,1.245c-.036.036-.068.074-.1.11a11.52,11.52,0,0,0-19.565.053,6.257,6.257,0,0,0-1.957-1.387ZM11.532,24.644V21.835l-.443-.256a4.448,4.448,0,0,1-2.219-3.837V15.968a4.435,4.435,0,0,1,4.573-4.433,4.587,4.587,0,0,1,4.3,4.656v1.551a4.453,4.453,0,0,1-2.22,3.839l-.444.256,0,2.807,3.044.761a4.414,4.414,0,0,0-1.27,3.091v.657l-2.767.615.072-.251.034-1.639L9.515,25.148Zm-9.758-1.58h.647L8.8,26.786,5.582,39.662l-3.807-1.27ZM9.015,40.806l-1.746-.582L10.4,27.716l2.023,1.18v.253L9.089,40.806Zm6.066,2.554a1,1,0,0,1,.291-.7L16.931,41.1A.995.995,0,0,1,18.338,42.5l-1.559,1.559a.995.995,0,0,1-1.7-.7Zm2.661,2.661a1,1,0,0,1,.291-.7l1.559-1.559A.995.995,0,0,1,21,45.166L19.44,46.725a.995.995,0,0,1-1.7-.7ZM20.4,48.683a1,1,0,0,1,.291-.7l1.559-1.559a.995.995,0,0,1,1.407,1.407L22.1,49.386a.995.995,0,0,1-1.7-.7Zm3.656,3.656a.995.995,0,0,1-.7-1.7l1.559-1.559a.995.995,0,0,1,1.407,1.407l-1.559,1.559A1,1,0,0,1,24.059,52.339Zm4.29.887h-.164a.919.919,0,0,1-.611-.232l-.664-.585.666-.666a2.758,2.758,0,0,0,.559-.824l.807.671a.925.925,0,0,1-.593,1.636ZM36.3,45.242h-.153a.952.952,0,0,1-.61-.222L30.73,41.011l-1.137,1.364,4.672,3.892a.926.926,0,0,1-.593,1.636h-.194a.925.925,0,0,1-.592-.215l-4.818-4.015-1.137,1.364L31.6,48.93a.924.924,0,0,1-.593,1.635,1.465,1.465,0,0,1-.933-.338l-1.98-1.65a2.76,2.76,0,0,0-2.382-1.55,2.762,2.762,0,0,0-2.661-2.661A2.762,2.762,0,0,0,20.392,41.7a2.762,2.762,0,0,0-4.716-1.86L14.117,41.4a2.734,2.734,0,0,0-.249.3l-2.725-1.635,2.389-8.361,5.989-1.332a9.139,9.139,0,0,1,4.759.215l1.307.418-4.43,2.215a2.957,2.957,0,0,0-1.641,2.658v.175a2.971,2.971,0,0,0,4.5,2.548l3.3-1.981a1.831,1.831,0,0,1,2.127.2l7.5,6.745a.955.955,0,0,1-.638,1.664ZM53.226,34.935,38.281,42.409c-.049-.052-.1-.1-.152-.148l-7.494-6.745a3.57,3.57,0,0,0-4.228-.409l-3.3,1.982A1.2,1.2,0,0,1,21.29,36.06v-.175a1.19,1.19,0,0,1,.662-1.071L26.9,32.34a3.856,3.856,0,0,1,2.765-.256l5.575,1.592,1.35.034,16.636-8.756Zm0,0" transform="translate(205.687)" fill="#fff"/>
  </g>
</svg>
