<svg xmlns="http://www.w3.org/2000/svg" width="58" height="58" viewBox="0 0 58 58"><g transform="translate(0)"><circle cx="29" cy="29" r="29" transform="translate(0.001 0)" fill="#55acee"/><path d="M46.764,20.841a13.83,13.83,0,0,1-3.982,1.09A6.951,6.951,0,0,0,45.831,18.1a13.877,13.877,0,0,1-4.4,1.682A6.938,6.938,0,0,0,29.617,26.1a19.677,19.677,0,0,1-14.288-7.244,6.939,6.939,0,0,0,2.145,9.255,6.883,6.883,0,0,1-3.139-.868c0,.029,0,.059,0,.088a6.936,6.936,0,0,0,5.561,6.8,6.959,6.959,0,0,1-3.13.12,6.939,6.939,0,0,0,6.475,4.814,13.993,13.993,0,0,1-10.263,2.87A19.607,19.607,0,0,0,23.6,45.049c12.75,0,19.723-10.562,19.723-19.723,0-.3-.007-.6-.02-.9a14.057,14.057,0,0,0,3.459-3.588Z" fill="#f1f2f2"/></g></svg>