<svg width="713" height="453" viewBox="0 0 713 453" fill="none" xmlns="http://www.w3.org/2000/svg">
<g clip-path="url(#clip0)">
<path d="M447.082 175.725C448.426 161.155 452.137 146.906 458.068 133.547C459.722 129.825 461.541 126.189 463.527 122.64C463.622 122.454 463.642 122.239 463.584 122.039C463.526 121.839 463.394 121.669 463.215 121.564C463.036 121.458 462.824 121.426 462.623 121.473C462.421 121.521 462.245 121.644 462.131 121.818C454.909 134.763 449.85 148.814 447.155 163.411C446.405 167.487 445.841 171.592 445.464 175.727C445.369 176.77 446.985 176.764 447.082 175.727V175.725Z" fill="#E6E6E6"/>
<path d="M467.445 125.249C473.101 125.249 477.685 120.634 477.685 114.94C477.685 109.247 473.101 104.631 467.445 104.631C461.79 104.631 457.205 109.247 457.205 114.94C457.205 120.634 461.79 125.249 467.445 125.249Z" fill="#E6E6E6"/>
<path d="M448.129 176C449.002 166.547 451.41 157.303 455.259 148.636C456.331 146.224 457.512 143.866 458.8 141.56C458.871 141.439 458.89 141.295 458.855 141.16C458.819 141.024 458.732 140.908 458.612 140.838C458.492 140.767 458.348 140.747 458.214 140.783C458.079 140.819 457.964 140.907 457.894 141.028C453.209 149.426 449.926 158.542 448.178 168.011C447.692 170.656 447.327 173.319 447.082 176.001C447.018 176.676 448.067 176.671 448.129 176Z" fill="#E6E6E6"/>
<path d="M461.34 143.253C465.009 143.253 467.984 140.258 467.984 136.565C467.984 132.871 465.009 129.876 461.34 129.876C457.671 129.876 454.697 132.871 454.697 136.565C454.697 140.258 457.671 143.253 461.34 143.253Z" fill="#E6E6E6"/>
<path d="M446.806 175.368C441.721 167.375 437.974 158.595 435.715 149.379C435.088 146.813 434.577 144.223 434.185 141.607C434.164 141.47 434.09 141.347 433.98 141.264C433.87 141.181 433.733 141.145 433.596 141.164C433.46 141.182 433.337 141.253 433.252 141.362C433.168 141.472 433.13 141.61 433.145 141.747C434.582 151.27 437.563 160.49 441.97 169.039C443.203 171.425 444.542 173.751 445.987 176.017C446.351 176.59 447.175 175.936 446.814 175.368H446.806Z" fill="#E6E6E6"/>
<path d="M433.129 142.784C436.798 142.784 439.773 139.789 439.773 136.096C439.773 132.402 436.798 129.408 433.129 129.408C429.46 129.408 426.486 132.402 426.486 136.096C426.486 139.789 429.46 142.784 433.129 142.784Z" fill="#E6E6E6"/>
<path d="M426.41 181.286V168.145C426.411 166.839 426.927 165.587 427.845 164.663C428.763 163.74 430.006 163.22 431.304 163.218H461.762C463.059 163.22 464.303 163.74 465.221 164.663C466.138 165.587 466.654 166.839 466.656 168.145V181.286C466.654 182.592 466.138 183.844 465.221 184.768C464.303 185.691 463.059 186.211 461.762 186.213H431.301C430.003 186.211 428.759 185.691 427.842 184.768C426.924 183.844 426.408 182.592 426.406 181.286H426.41Z" fill="#F2F2F2"/>
<path d="M460.675 97.5125H447.621C446.323 97.5108 445.079 96.9912 444.162 96.0675C443.244 95.1438 442.728 93.8916 442.726 92.5853V38.9272C442.728 37.6209 443.244 36.3687 444.162 35.445C445.079 34.5213 446.323 34.0017 447.621 34H460.673C461.971 34.0017 463.215 34.5213 464.132 35.445C465.05 36.3687 465.566 37.6209 465.568 38.9272V92.5853C465.566 93.8916 465.05 95.1438 464.132 96.0675C463.215 96.9912 461.971 97.5108 460.673 97.5125H460.675Z" fill="#F2F2F2"/>
<path d="M465.027 44.403H443.271V48.7831H465.027V44.403Z" fill="#CCCCCC"/>
<path d="M465.027 78.3493H443.271V82.7294H465.027V78.3493Z" fill="#CCCCCC"/>
<path d="M493.308 97.5125H480.26C478.963 97.5108 477.719 96.9912 476.801 96.0675C475.884 95.1438 475.368 93.8916 475.366 92.5853V38.9272C475.368 37.6209 475.884 36.3687 476.801 35.445C477.719 34.5213 478.963 34.0017 480.26 34H493.313C494.61 34.0017 495.854 34.5213 496.772 35.445C497.689 36.3687 498.206 37.6209 498.207 38.9272V92.5853C498.206 93.8916 497.689 95.1438 496.772 96.0675C495.854 96.9912 494.61 97.5108 493.313 97.5125H493.308Z" fill="#F2F2F2"/>
<path d="M497.66 44.403H475.905V48.7831H497.66V44.403Z" fill="#CCCCCC"/>
<path d="M497.66 78.3493H475.905V82.7294H497.66V78.3493Z" fill="#CCCCCC"/>
<path d="M525.941 97.5125H512.889C511.591 97.5108 510.347 96.9912 509.43 96.0675C508.512 95.1438 507.996 93.8916 507.994 92.5853V38.9272C507.996 37.6209 508.512 36.3687 509.43 35.445C510.347 34.5213 511.591 34.0017 512.889 34H525.941C527.239 34.0017 528.483 34.5213 529.4 35.445C530.318 36.3687 530.834 37.6209 530.836 38.9272V92.5853C530.834 93.8916 530.318 95.1438 529.4 96.0675C528.483 96.9912 527.239 97.5108 525.941 97.5125Z" fill="#F2F2F2"/>
<path d="M530.294 44.403H508.538V48.7831H530.294V44.403Z" fill="#CCCCCC"/>
<path d="M530.294 78.3493H508.538V82.7294H530.294V78.3493Z" fill="#CCCCCC"/>
<path d="M543.345 186.213H530.292C528.995 186.211 527.751 185.691 526.833 184.768C525.916 183.844 525.399 182.592 525.398 181.286V127.627C525.399 126.321 525.916 125.069 526.833 124.145C527.751 123.222 528.995 122.702 530.292 122.7H543.345C544.642 122.702 545.886 123.222 546.804 124.145C547.721 125.069 548.237 126.321 548.239 127.627V181.286C548.237 182.592 547.721 183.844 546.804 184.768C545.886 185.691 544.642 186.211 543.345 186.213Z" fill="#F2F2F2"/>
<path d="M547.697 133.103H525.941V137.483H547.697V133.103Z" fill="#CCCCCC"/>
<path d="M547.697 167.05H525.941V171.43H547.697V167.05Z" fill="#CCCCCC"/>
<path d="M575.978 186.213H562.925C561.628 186.211 560.384 185.691 559.466 184.768C558.549 183.844 558.033 182.592 558.031 181.286V127.627C558.033 126.321 558.549 125.069 559.466 124.145C560.384 123.222 561.628 122.702 562.925 122.7H575.978C577.276 122.702 578.519 123.222 579.437 124.145C580.354 125.069 580.871 126.321 580.872 127.627V181.286C580.871 182.592 580.354 183.844 579.437 184.768C578.519 185.691 577.276 186.211 575.978 186.213Z" fill="#F2F2F2"/>
<path d="M580.331 133.103H558.575V137.483H580.331V133.103Z" fill="#CCCCCC"/>
<path d="M580.331 167.05H558.575V171.43H580.331V167.05Z" fill="#CCCCCC"/>
<path d="M608.611 186.213H595.559C594.261 186.211 593.017 185.691 592.1 184.768C591.182 183.844 590.666 182.592 590.664 181.286V127.627C590.666 126.321 591.182 125.069 592.1 124.145C593.017 123.222 594.261 122.702 595.559 122.7H608.611C609.909 122.702 611.153 123.222 612.07 124.145C612.988 125.069 613.504 126.321 613.506 127.627V181.286C613.504 182.592 612.988 183.844 612.07 184.768C611.153 185.691 609.909 186.211 608.611 186.213Z" fill="#F2F2F2"/>
<path d="M612.964 133.103H591.208V137.483H612.964V133.103Z" fill="#CCCCCC"/>
<path d="M612.964 167.05H591.208V171.43H612.964V167.05Z" fill="#CCCCCC"/>
<path d="M457.411 274.913H444.358C443.061 274.911 441.817 274.392 440.899 273.468C439.982 272.544 439.466 271.292 439.464 269.986V216.328C439.466 215.021 439.982 213.769 440.899 212.846C441.817 211.922 443.061 211.402 444.358 211.401H457.411C458.708 211.402 459.952 211.922 460.87 212.846C461.787 213.769 462.304 215.021 462.305 216.328V269.986C462.304 271.292 461.787 272.544 460.87 273.468C459.952 274.392 458.708 274.911 457.411 274.913Z" fill="#F2F2F2"/>
<path d="M461.763 221.802H440.007V226.182H461.763V221.802Z" fill="#CCCCCC"/>
<path d="M461.763 255.75H440.007V260.13H461.763V255.75Z" fill="#CCCCCC"/>
<path d="M490.044 274.913H476.991C475.694 274.911 474.45 274.392 473.532 273.468C472.615 272.544 472.099 271.292 472.097 269.986V216.328C472.099 215.021 472.615 213.769 473.532 212.846C474.45 211.922 475.694 211.402 476.991 211.401H490.044C491.342 211.402 492.586 211.922 493.503 212.846C494.421 213.769 494.937 215.021 494.938 216.328V269.986C494.937 271.292 494.421 272.544 493.503 273.468C492.586 274.392 491.342 274.911 490.044 274.913Z" fill="#F2F2F2"/>
<path d="M494.397 221.802H472.641V226.182H494.397V221.802Z" fill="#CCCCCC"/>
<path d="M494.397 255.75H472.641V260.13H494.397V255.75Z" fill="#CCCCCC"/>
<path d="M522.677 274.913H509.625C508.327 274.911 507.083 274.392 506.166 273.468C505.248 272.544 504.732 271.292 504.73 269.986V216.328C504.732 215.021 505.248 213.769 506.166 212.846C507.083 211.922 508.327 211.402 509.625 211.401H522.677C523.975 211.402 525.219 211.922 526.136 212.846C527.054 213.769 527.57 215.021 527.572 216.328V269.986C527.57 271.292 527.054 272.544 526.136 273.468C525.219 274.392 523.975 274.911 522.677 274.913Z" fill="#F2F2F2"/>
<path d="M527.03 221.802H505.274V226.182H527.03V221.802Z" fill="#CCCCCC"/>
<path d="M527.03 255.75H505.274V260.13H527.03V255.75Z" fill="#CCCCCC"/>
<path d="M558.573 97.5125H545.52C544.223 97.5108 542.979 96.9912 542.061 96.0675C541.144 95.1438 540.628 93.8916 540.626 92.5853V38.9272C540.628 37.6209 541.144 36.3687 542.061 35.445C542.979 34.5213 544.223 34.0017 545.52 34H558.573C559.87 34.0017 561.114 34.5213 562.032 35.445C562.949 36.3687 563.466 37.6209 563.467 38.9272V92.5853C563.466 93.8916 562.949 95.1438 562.032 96.0675C561.114 96.9912 559.87 97.5108 558.573 97.5125Z" fill="#F2F2F2"/>
<path d="M562.925 44.403H541.169V48.7831H562.925V44.403Z" fill="#CCCCCC"/>
<path d="M562.925 78.3493H541.169V82.7294H562.925V78.3493Z" fill="#CCCCCC"/>
<path d="M591.206 97.5125H578.153C576.856 97.5108 575.612 96.9912 574.694 96.0675C573.777 95.1438 573.261 93.8916 573.259 92.5853V38.9272C573.261 37.6209 573.777 36.3687 574.694 35.445C575.612 34.5213 576.856 34.0017 578.153 34H591.206C592.504 34.0017 593.748 34.5213 594.665 35.445C595.583 36.3687 596.099 37.6209 596.101 38.9272V92.5853C596.099 93.8916 595.583 95.1438 594.665 96.0675C593.748 96.9912 592.504 97.5108 591.206 97.5125Z" fill="#F2F2F2"/>
<path d="M595.559 44.403H573.803V48.7831H595.559V44.403Z" fill="#CCCCCC"/>
<path d="M595.559 78.3493H573.803V82.7294H595.559V78.3493Z" fill="#CCCCCC"/>
<path d="M623.839 97.5125H610.787C609.489 97.5108 608.245 96.9912 607.328 96.0675C606.41 95.1438 605.894 93.8916 605.892 92.5853V38.9272C605.894 37.6209 606.41 36.3687 607.328 35.445C608.245 34.5213 609.489 34.0017 610.787 34H623.839C625.137 34.0017 626.381 34.5213 627.298 35.445C628.216 36.3687 628.732 37.6209 628.734 38.9272V92.5853C628.732 93.8916 628.216 95.1438 627.298 96.0675C626.381 96.9912 625.137 97.5108 623.839 97.5125Z" fill="#F2F2F2"/>
<path d="M628.192 44.403H606.436V48.7831H628.192V44.403Z" fill="#CCCCCC"/>
<path d="M628.192 78.3493H606.436V82.7294H628.192V78.3493Z" fill="#CCCCCC"/>
<path d="M656.473 97.5125H643.42C642.122 97.5108 640.878 96.9912 639.961 96.0675C639.043 95.1438 638.527 93.8916 638.526 92.5853V38.9272C638.527 37.6209 639.043 36.3687 639.961 35.445C640.878 34.5213 642.122 34.0017 643.42 34H656.473C657.77 34.0017 659.014 34.5213 659.932 35.445C660.849 36.3687 661.365 37.6209 661.367 38.9272V92.5853C661.365 93.8916 660.849 95.1438 659.932 96.0675C659.014 96.9912 657.77 97.5108 656.473 97.5125Z" fill="#F2F2F2"/>
<path d="M660.825 44.403H639.069V48.7831H660.825V44.403Z" fill="#CCCCCC"/>
<path d="M660.825 78.3493H639.069V82.7294H660.825V78.3493Z" fill="#CCCCCC"/>
<path d="M705.357 99.1554H395.345C395.064 99.1446 394.798 99.0245 394.602 98.8204C394.407 98.6162 394.298 98.3438 394.298 98.0604C394.298 97.777 394.407 97.5047 394.602 97.3005C394.798 97.0963 395.064 96.9762 395.345 96.9654H705.357C705.639 96.9762 705.905 97.0963 706.1 97.3005C706.295 97.5047 706.404 97.777 706.404 98.0604C706.404 98.3438 706.295 98.6162 706.1 98.8204C705.905 99.0245 705.639 99.1446 705.357 99.1554Z" fill="#CCCCCC"/>
<path d="M705.357 187.856H395.345C395.064 187.845 394.798 187.725 394.602 187.521C394.407 187.316 394.298 187.044 394.298 186.761C394.298 186.477 394.407 186.205 394.602 186.001C394.798 185.797 395.064 185.676 395.345 185.666H705.357C705.639 185.676 705.905 185.797 706.1 186.001C706.295 186.205 706.404 186.477 706.404 186.761C706.404 187.044 706.295 187.316 706.1 187.521C705.905 187.725 705.639 187.845 705.357 187.856Z" fill="#CCCCCC"/>
<path d="M705.357 276.553H395.345C395.064 276.542 394.798 276.422 394.602 276.218C394.407 276.014 394.298 275.741 394.298 275.458C394.298 275.174 394.407 274.902 394.602 274.698C394.798 274.494 395.064 274.374 395.345 274.363H705.357C705.639 274.374 705.905 274.494 706.1 274.698C706.295 274.902 706.404 275.174 706.404 275.458C706.404 275.741 706.295 276.014 706.1 276.218C705.905 276.422 705.639 276.542 705.357 276.553Z" fill="#CCCCCC"/>
<path d="M626.563 264.43C627.907 249.86 631.618 235.611 637.55 222.252C639.203 218.53 641.022 214.894 643.008 211.345C643.103 211.159 643.123 210.944 643.065 210.744C643.007 210.544 642.875 210.374 642.696 210.269C642.518 210.163 642.306 210.131 642.104 210.179C641.902 210.226 641.726 210.349 641.612 210.523C634.39 223.468 629.331 237.52 626.636 252.116C625.886 256.192 625.322 260.297 624.945 264.432C624.85 265.475 626.466 265.469 626.563 264.432V264.43Z" fill="#E6E6E6"/>
<path d="M646.925 213.948C652.58 213.948 657.165 209.332 657.165 203.639C657.165 197.945 652.58 193.33 646.925 193.33C641.269 193.33 636.684 197.945 636.684 203.639C636.684 209.332 641.269 213.948 646.925 213.948Z" fill="#E6E6E6"/>
<path d="M627.614 264.698C628.486 255.246 630.895 246.001 634.744 237.335C635.816 234.923 636.996 232.564 638.285 230.259C638.355 230.138 638.375 229.994 638.339 229.858C638.304 229.723 638.216 229.607 638.096 229.536C637.976 229.466 637.833 229.446 637.698 229.482C637.564 229.517 637.449 229.605 637.378 229.726C632.693 238.124 629.411 247.24 627.663 256.71C627.177 259.355 626.811 262.018 626.566 264.7C626.504 265.376 627.549 265.371 627.614 264.698Z" fill="#E6E6E6"/>
<path d="M640.821 231.953C644.491 231.953 647.465 228.959 647.465 225.265C647.465 221.571 644.491 218.577 640.821 218.577C637.152 218.577 634.178 221.571 634.178 225.265C634.178 228.959 637.152 231.953 640.821 231.953Z" fill="#E6E6E6"/>
<path d="M626.287 264.068C621.202 256.075 617.455 247.295 615.196 238.08C614.568 235.514 614.058 232.923 613.666 230.307C613.645 230.17 613.572 230.047 613.462 229.965C613.352 229.882 613.214 229.846 613.078 229.864C612.942 229.882 612.818 229.954 612.734 230.063C612.649 230.172 612.611 230.31 612.626 230.447C614.063 239.97 617.044 249.19 621.452 257.739C622.684 260.125 624.023 262.451 625.468 264.717C625.833 265.288 626.657 264.636 626.295 264.068H626.287Z" fill="#E6E6E6"/>
<path d="M612.61 231.484C616.28 231.484 619.254 228.49 619.254 224.796C619.254 221.102 616.28 218.108 612.61 218.108C608.941 218.108 605.967 221.102 605.967 224.796C605.967 228.49 608.941 231.484 612.61 231.484Z" fill="#E6E6E6"/>
<path d="M605.891 269.984V256.844C605.892 255.538 606.409 254.286 607.326 253.362C608.244 252.438 609.488 251.919 610.785 251.917H641.24C642.537 251.919 643.781 252.438 644.699 253.362C645.616 254.286 646.132 255.538 646.134 256.844V269.984C646.132 271.291 645.616 272.543 644.699 273.466C643.781 274.39 642.537 274.91 641.24 274.911H610.787C609.489 274.91 608.245 274.391 607.327 273.467C606.409 272.543 605.892 271.291 605.891 269.984Z" fill="#F2F2F2"/>
<path d="M409.485 432.053H-4.953C-5.2343 432.042 -5.50049 431.922 -5.69571 431.718C-5.89093 431.514 -6 431.241 -6 430.958C-6 430.675 -5.89093 430.402 -5.69571 430.198C-5.50049 429.994 -5.2343 429.874 -4.953 429.863H409.485C409.767 429.874 410.033 429.994 410.228 430.198C410.423 430.402 410.532 430.675 410.532 430.958C410.532 431.241 410.423 431.514 410.228 431.718C410.033 431.922 409.767 432.042 409.485 432.053Z" fill="#3F3D56"/>
<path d="M210.489 288.6C226.71 288.6 239.859 275.363 239.859 259.034C239.859 242.705 226.71 229.468 210.489 229.468C194.269 229.468 181.12 242.705 181.12 259.034C181.12 275.363 194.269 288.6 210.489 288.6Z" fill="#2F2E41"/>
<path d="M182.584 448.836L181.806 435.438L232.786 426.036L233.935 445.815L182.584 448.836Z" fill="#FFB8B8"/>
<path d="M185.049 425.637L186.55 451.484L170.384 452.435L167.939 410.312C170.062 410.187 172.188 410.485 174.197 411.187C176.206 411.89 178.058 412.984 179.647 414.407C181.236 415.83 182.531 417.554 183.458 419.481C184.384 421.408 184.925 423.499 185.049 425.637Z" fill="#2F2E41"/>
<path d="M204.757 448.718L196.288 459.086L152.523 431.141L165.021 415.828L204.757 448.718Z" fill="#FFB8B8"/>
<path d="M187.633 463.846L203.964 443.832L216.481 454.184L189.866 486.8C188.222 485.441 186.861 483.769 185.859 481.879C184.857 479.99 184.234 477.92 184.027 475.789C183.819 473.657 184.031 471.506 184.65 469.456C185.269 467.407 186.282 465.501 187.633 463.846Z" fill="#2F2E41"/>
<path d="M180.388 400.49L174.602 427.952C174.468 428.584 174.476 429.239 174.623 429.868C174.771 430.497 175.055 431.086 175.455 431.591C175.855 432.097 176.362 432.507 176.938 432.792C177.514 433.078 178.146 433.231 178.788 433.241L235.669 434.165C236.311 434.175 236.946 434.043 237.531 433.777C238.116 433.512 238.635 433.119 239.051 432.628C239.467 432.137 239.77 431.559 239.939 430.936C240.107 430.313 240.137 429.66 240.025 429.024L235.048 400.632C234.871 399.619 234.345 398.701 233.563 398.039C232.781 397.378 231.792 397.014 230.77 397.012H184.646C183.647 397.012 182.68 397.358 181.904 397.991C181.129 398.624 180.594 399.506 180.388 400.49Z" fill="#2F2E41"/>
<path d="M189.822 410.153C189.822 410.153 134.346 375.111 123.469 393.723C118.029 403.031 120.75 412.067 124.828 418.766C128.614 424.873 134.048 429.769 140.495 432.882L185.471 455.04L201.791 437.519L190.914 427.663L189.822 410.153Z" fill="#2F2E41"/>
<path d="M218.104 404.677C218.104 404.677 289.895 383.871 275.754 423.299C261.613 462.728 208.312 447.385 208.312 447.385L202.873 430.956L221.365 417.815L218.104 404.677Z" fill="#2F2E41"/>
<path d="M210.859 292.682C225.614 292.682 237.576 280.64 237.576 265.786C237.576 250.932 225.614 238.89 210.859 238.89C196.103 238.89 184.142 250.932 184.142 265.786C184.142 280.64 196.103 292.682 210.859 292.682Z" fill="#FFB8B8"/>
<path d="M212.258 409.023C201.156 408.854 190.112 407.389 179.346 404.658L179.029 404.57L164.121 335.532C162.778 329.465 163.69 323.113 166.683 317.676C169.675 312.239 174.543 308.094 180.364 306.023C198.345 299.531 217.943 299.138 236.165 304.907C242.28 306.891 247.427 311.122 250.58 316.758C253.732 322.393 254.658 329.018 253.173 335.31L236.52 404.512L236.286 404.624C229.363 407.924 220.711 409.023 212.258 409.023Z" fill="#CCCCCC"/>
<path d="M192.23 414.386C192.771 412.871 193.635 411.493 194.762 410.35C195.889 409.208 197.252 408.328 198.753 407.774C200.255 407.219 201.859 407.003 203.453 407.14C205.046 407.277 206.591 407.765 207.977 408.569L237.332 382.917L239.987 403.075L211.697 424.344C210.203 426.598 207.939 428.222 205.336 428.909C202.732 429.595 199.968 429.297 197.568 428.069C195.168 426.842 193.299 424.772 192.314 422.25C191.329 419.728 191.297 416.93 192.224 414.386H192.23Z" fill="#FFB8B8"/>
<path d="M220.227 419.982C219.75 419.981 219.275 419.911 218.817 419.773C218.074 419.555 217.394 419.161 216.834 418.624C216.273 418.088 215.848 417.424 215.595 416.688L212.052 406.581C211.72 405.647 211.678 404.634 211.931 403.675C212.184 402.716 212.72 401.858 213.468 401.212L253.464 377.042L237.699 306.234L238.1 306.137C238.258 306.097 254.42 302.395 261.036 320.165C265.673 332.607 282.826 359.672 281.615 377.958C281.386 381.616 279.938 385.09 277.506 387.818C275.074 390.546 271.799 392.369 268.211 392.993L223.19 418.961C222.343 419.623 221.3 419.983 220.227 419.985V419.982Z" fill="#CCCCCC"/>
<path d="M224.715 411.984C224.174 410.468 223.31 409.091 222.183 407.948C221.056 406.806 219.693 405.926 218.192 405.371C216.69 404.817 215.086 404.6 213.492 404.738C211.899 404.875 210.354 405.363 208.968 406.167L179.613 380.516L176.958 400.675L205.24 421.943C206.734 424.197 208.998 425.822 211.602 426.508C214.205 427.195 216.969 426.896 219.369 425.669C221.769 424.442 223.638 422.371 224.623 419.849C225.608 417.327 225.64 414.529 224.713 411.985L224.715 411.984Z" fill="#FFB8B8"/>
<path d="M199.655 419.982C198.582 419.98 197.54 419.62 196.692 418.957L148.408 395.18C144.82 394.556 141.546 392.733 139.115 390.006C136.683 387.278 135.235 383.805 135.005 380.148C133.794 361.862 154.212 332.615 158.848 320.165C165.466 302.395 181.621 306.095 181.784 306.137L182.185 306.234L163.156 379.232L206.411 401.214C207.16 401.859 207.696 402.718 207.949 403.677C208.202 404.635 208.159 405.649 207.828 406.583L204.285 416.689C204.031 417.425 203.607 418.089 203.046 418.626C202.485 419.163 201.805 419.556 201.062 419.774C200.605 419.911 200.132 419.981 199.655 419.982Z" fill="#CCCCCC"/>
<path d="M257.264 430.956H160.454C158.437 430.954 156.502 430.147 155.074 428.712C153.647 427.277 152.842 425.33 152.838 423.299V369.641C152.84 367.609 153.643 365.66 155.071 364.223C156.498 362.786 158.434 361.977 160.453 361.975H257.262C259.281 361.977 261.217 362.786 262.644 364.223C264.072 365.66 264.875 367.609 264.877 369.641V423.299C264.872 425.33 264.069 427.276 262.642 428.711C261.215 430.146 259.281 430.953 257.264 430.956Z" fill="white"/>
<path d="M208.858 401.439C212.462 401.439 215.384 398.497 215.384 394.869C215.384 391.24 212.462 388.299 208.858 388.299C205.253 388.299 202.331 391.24 202.331 394.869C202.331 398.497 205.253 401.439 208.858 401.439Z" fill="black"/>
<path d="M183.874 264.692C182.29 260.648 184.888 255.83 188.743 253.871C192.598 251.912 197.248 252.285 201.369 253.576C204.833 254.66 208.081 256.342 211.461 257.67C214.795 259.158 218.437 259.81 222.076 259.572C223.891 259.431 225.64 258.826 227.157 257.814C228.674 256.802 229.909 255.417 230.745 253.79C231.408 252.012 231.585 250.087 231.257 248.217C230.928 246.347 230.107 244.6 228.879 243.158C226.373 240.305 223.131 238.206 219.511 237.097C211.562 234.279 202.38 234.196 195.002 238.293C187.623 242.391 182.606 251.116 184.132 259.462" fill="#2F2E41"/>
<path d="M29.4857 419.262C30.8299 404.691 34.542 390.442 40.4738 377.082C42.127 373.36 43.9464 369.725 45.9323 366.175C46.0269 365.99 46.0473 365.775 45.9894 365.574C45.9314 365.374 45.7994 365.204 45.6207 365.099C45.4419 364.994 45.2298 364.961 45.0281 365.009C44.8264 365.056 44.6505 365.18 44.5364 365.354C37.3144 378.298 32.2549 392.35 29.5602 406.947C28.8102 411.023 28.2467 415.128 27.8696 419.262C27.7745 420.305 29.3907 420.299 29.4873 419.262H29.4857Z" fill="#E6E6E6"/>
<path d="M49.8506 368.785C55.5062 368.785 60.0909 364.169 60.0909 358.476C60.0909 352.782 55.5062 348.167 49.8506 348.167C44.1951 348.167 39.6104 352.782 39.6104 358.476C39.6104 364.169 44.1951 368.785 49.8506 368.785Z" fill="#6C63FF"/>
<path d="M30.5362 419.536C31.4088 410.084 33.8175 400.84 37.6662 392.173C38.7384 389.761 39.9188 387.403 41.2075 385.097C41.2776 384.976 41.2972 384.832 41.2618 384.697C41.2265 384.561 41.1391 384.445 41.0189 384.375C40.8987 384.304 40.7556 384.284 40.621 384.32C40.4864 384.356 40.3713 384.444 40.3012 384.565C35.6158 392.963 32.3335 402.079 30.5853 411.548C30.0994 414.193 29.734 416.856 29.4889 419.538C29.4255 420.213 30.4744 420.208 30.5362 419.536Z" fill="#E6E6E6"/>
<path d="M43.7473 386.79C47.4165 386.79 50.3909 383.795 50.3909 380.102C50.3909 376.408 47.4165 373.413 43.7473 373.413C40.0782 373.413 37.1037 376.408 37.1037 380.102C37.1037 383.795 40.0782 386.79 43.7473 386.79Z" fill="#6C63FF"/>
<path d="M29.2116 418.903C24.1264 410.91 20.3795 402.13 18.1205 392.915C17.4931 390.349 16.9829 387.758 16.5899 385.142C16.569 385.005 16.4957 384.882 16.3858 384.8C16.2758 384.717 16.138 384.681 16.0019 384.699C15.8657 384.717 15.7422 384.789 15.6579 384.898C15.5735 385.007 15.5349 385.145 15.5506 385.282C16.9871 394.805 19.9687 404.025 24.3759 412.574C25.6075 414.96 26.9464 417.286 28.3925 419.552C28.749 420.125 29.5745 419.471 29.2116 418.903Z" fill="#E6E6E6"/>
<path d="M15.5363 386.321C19.2054 386.321 22.1799 383.326 22.1799 379.633C22.1799 375.939 19.2054 372.944 15.5363 372.944C11.8671 372.944 8.89272 375.939 8.89272 379.633C8.89272 383.326 11.8671 386.321 15.5363 386.321Z" fill="#6C63FF"/>
<path d="M8.81822 424.821V411.681C8.8199 410.375 9.33611 409.122 10.2536 408.199C11.1711 407.275 12.415 406.755 13.7126 406.754H44.1704C45.4679 406.755 46.7118 407.275 47.6293 408.199C48.5468 409.122 49.063 410.375 49.0647 411.681V424.821C49.063 426.127 48.5468 427.379 47.6293 428.303C46.7118 429.227 45.4679 429.746 44.1704 429.748H13.7126C12.415 429.746 11.1711 429.227 10.2536 428.303C9.33611 427.379 8.8199 426.127 8.81822 424.821Z" fill="#F2F2F2"/>
<path d="M335.963 440.158C335.963 447.359 330.164 450.634 323.009 450.634C315.853 450.634 310.054 447.361 310.054 440.158C310.054 432.954 312.933 424.551 323.009 427.45C333.083 423.103 335.963 432.956 335.963 440.158Z" fill="#FF6584"/>
<path d="M322.378 430.823C321.874 430.825 321.387 430.641 321.007 430.307C320.628 429.972 320.383 429.51 320.318 429.006C319.416 424.415 318.148 419.904 316.528 415.517C316.428 415.233 316.397 414.929 316.438 414.63C316.48 414.331 316.593 414.047 316.768 413.802C316.935 413.583 317.146 413.402 317.388 413.271C317.629 413.14 317.896 413.062 318.17 413.042C318.443 413.022 318.718 413.061 318.976 413.156C319.234 413.25 319.469 413.399 319.666 413.592C319.841 413.777 319.977 413.997 320.064 414.237C320.152 414.477 320.189 414.733 320.174 414.989C319.979 418.658 322.636 424.587 324.237 427.794C324.388 428.097 324.464 428.431 324.458 428.77C324.452 429.108 324.365 429.44 324.203 429.737C324.042 430.034 323.811 430.287 323.531 430.474C323.251 430.661 322.93 430.777 322.595 430.812C322.522 430.82 322.449 430.824 322.375 430.823H322.378Z" fill="#3F3D56"/>
<path d="M331.956 422.73C336.453 419.024 332.924 411.443 327.296 412.898C326.539 413.08 325.842 413.454 325.27 413.986C321.817 417.268 321.282 425.67 321.282 425.67C325.08 426.067 328.888 425.018 331.956 422.73Z" fill="#3F3D56"/>
<path d="M194.73 409.631V416.651H193.02V412.441L191.45 416.651H190.07L188.49 412.431V416.651H186.78V409.631H188.8L190.77 414.491L192.72 409.631H194.73ZM195.62 413.851C195.62 413.278 195.727 412.775 195.94 412.341C196.16 411.908 196.457 411.575 196.83 411.341C197.203 411.108 197.62 410.991 198.08 410.991C198.473 410.991 198.817 411.071 199.11 411.231C199.41 411.391 199.64 411.601 199.8 411.861V411.071H201.51V416.651H199.8V415.861C199.633 416.121 199.4 416.331 199.1 416.491C198.807 416.651 198.463 416.731 198.07 416.731C197.617 416.731 197.203 416.615 196.83 416.381C196.457 416.141 196.16 415.805 195.94 415.371C195.727 414.931 195.62 414.425 195.62 413.851ZM199.8 413.861C199.8 413.435 199.68 413.098 199.44 412.851C199.207 412.605 198.92 412.481 198.58 412.481C198.24 412.481 197.95 412.605 197.71 412.851C197.477 413.091 197.36 413.425 197.36 413.851C197.36 414.278 197.477 414.618 197.71 414.871C197.95 415.118 198.24 415.241 198.58 415.241C198.92 415.241 199.207 415.118 199.44 414.871C199.68 414.625 199.8 414.288 199.8 413.861ZM205.857 415.201V416.651H204.987C204.367 416.651 203.884 416.501 203.537 416.201C203.191 415.895 203.017 415.398 203.017 414.711V412.491H202.337V411.071H203.017V409.711H204.727V411.071H205.847V412.491H204.727V414.731C204.727 414.898 204.767 415.018 204.847 415.091C204.927 415.165 205.061 415.201 205.247 415.201H205.857ZM210.24 411.011C210.88 411.011 211.393 411.225 211.78 411.651C212.166 412.071 212.36 412.651 212.36 413.391V416.651H210.66V413.621C210.66 413.248 210.563 412.958 210.37 412.751C210.176 412.545 209.916 412.441 209.59 412.441C209.263 412.441 209.003 412.545 208.81 412.751C208.616 412.958 208.52 413.248 208.52 413.621V416.651H206.81V409.251H208.52V411.821C208.693 411.575 208.93 411.378 209.23 411.231C209.53 411.085 209.866 411.011 210.24 411.011ZM218.808 413.771C218.808 413.931 218.798 414.098 218.778 414.271H214.908C214.935 414.618 215.045 414.885 215.238 415.071C215.438 415.251 215.681 415.341 215.968 415.341C216.395 415.341 216.691 415.161 216.858 414.801H218.678C218.585 415.168 218.415 415.498 218.168 415.791C217.928 416.085 217.625 416.315 217.258 416.481C216.891 416.648 216.481 416.731 216.028 416.731C215.481 416.731 214.995 416.615 214.568 416.381C214.141 416.148 213.808 415.815 213.568 415.381C213.328 414.948 213.208 414.441 213.208 413.861C213.208 413.281 213.325 412.775 213.558 412.341C213.798 411.908 214.131 411.575 214.558 411.341C214.985 411.108 215.475 410.991 216.028 410.991C216.568 410.991 217.048 411.105 217.468 411.331C217.888 411.558 218.215 411.881 218.448 412.301C218.688 412.721 218.808 413.211 218.808 413.771ZM217.058 413.321C217.058 413.028 216.958 412.795 216.758 412.621C216.558 412.448 216.308 412.361 216.008 412.361C215.721 412.361 215.478 412.445 215.278 412.611C215.085 412.778 214.965 413.015 214.918 413.321H217.058ZM225.22 411.071V416.651H223.51V415.891C223.337 416.138 223.1 416.338 222.8 416.491C222.507 416.638 222.18 416.711 221.82 416.711C221.393 416.711 221.017 416.618 220.69 416.431C220.363 416.238 220.11 415.961 219.93 415.601C219.75 415.241 219.66 414.818 219.66 414.331V411.071H221.36V414.101C221.36 414.475 221.457 414.765 221.65 414.971C221.843 415.178 222.103 415.281 222.43 415.281C222.763 415.281 223.027 415.178 223.22 414.971C223.413 414.765 223.51 414.475 223.51 414.101V411.071H225.22ZM228.718 416.731C228.232 416.731 227.798 416.648 227.418 416.481C227.038 416.315 226.738 416.088 226.518 415.801C226.298 415.508 226.175 415.181 226.148 414.821H227.838C227.858 415.015 227.948 415.171 228.108 415.291C228.268 415.411 228.465 415.471 228.698 415.471C228.912 415.471 229.075 415.431 229.188 415.351C229.308 415.265 229.368 415.155 229.368 415.021C229.368 414.861 229.285 414.745 229.118 414.671C228.952 414.591 228.682 414.505 228.308 414.411C227.908 414.318 227.575 414.221 227.308 414.121C227.042 414.015 226.812 413.851 226.618 413.631C226.425 413.405 226.328 413.101 226.328 412.721C226.328 412.401 226.415 412.111 226.588 411.851C226.768 411.585 227.028 411.375 227.368 411.221C227.715 411.068 228.125 410.991 228.598 410.991C229.298 410.991 229.848 411.165 230.248 411.511C230.655 411.858 230.888 412.318 230.948 412.891H229.368C229.342 412.698 229.255 412.545 229.108 412.431C228.968 412.318 228.782 412.261 228.548 412.261C228.348 412.261 228.195 412.301 228.088 412.381C227.982 412.455 227.928 412.558 227.928 412.691C227.928 412.851 228.012 412.971 228.178 413.051C228.352 413.131 228.618 413.211 228.978 413.291C229.392 413.398 229.728 413.505 229.988 413.611C230.248 413.711 230.475 413.878 230.668 414.111C230.868 414.338 230.972 414.645 230.978 415.031C230.978 415.358 230.885 415.651 230.698 415.911C230.518 416.165 230.255 416.365 229.908 416.511C229.568 416.658 229.172 416.731 228.718 416.731Z" fill="#484B4D"/>
</g>
<defs>
<clipPath id="clip0">
<rect width="713" height="453" fill="white"/>
</clipPath>
</defs>
</svg>
