<svg width="30" height="30" viewBox="0 0 30 30" fill="none" xmlns="http://www.w3.org/2000/svg">
<path d="M15.0001 0C6.71586 0 0 6.71585 0 15.0001C0 22.4301 5.40783 28.5834 12.4984 29.7749V18.1295H8.87992V13.9388H12.4984V10.8488C12.4984 7.2634 14.6882 5.30959 17.8871 5.30959C19.4191 5.30959 20.7357 5.42375 21.1179 5.47403V9.22168L18.8993 9.22276C17.16 9.22276 16.8247 10.0491 16.8247 11.2621V13.9367H20.9748L20.4335 18.1274H16.8247V29.8751C24.2463 28.9718 30 22.6618 30 14.9958C30 6.71585 23.2841 0 15.0001 0Z" fill="white"/>
</svg>
