<svg width="30" height="30" viewBox="0 0 30 30" fill="none" xmlns="http://www.w3.org/2000/svg">
<g clip-path="url(#clip0)">
<path d="M29.7358 5.96021L20.6375 15L29.7358 24.0398C29.9003 23.696 30.0001 23.316 30.0001 22.9101V7.08984C30.0001 6.68396 29.9003 6.30398 29.7358 5.96021Z" fill="white"/>
<path d="M27.3633 4.45312H2.63671C2.23083 4.45312 1.85085 4.55291 1.50708 4.71738L13.1358 16.2875C14.164 17.3157 15.836 17.3157 16.8642 16.2875L28.4929 4.71738C28.1491 4.55291 27.7691 4.45312 27.3633 4.45312Z" fill="white"/>
<path d="M0.264258 5.96021C0.0997852 6.30398 0 6.68396 0 7.08984V22.9101C0 23.316 0.0997852 23.6961 0.264258 24.0398L9.36264 15L0.264258 5.96021Z" fill="white"/>
<path d="M19.3945 16.2428L18.107 17.5303C16.3938 19.2435 13.6061 19.2435 11.8929 17.5303L10.6055 16.2428L1.50708 25.2826C1.85085 25.4471 2.23083 25.5469 2.63671 25.5469H27.3633C27.7691 25.5469 28.1491 25.4471 28.4929 25.2826L19.3945 16.2428Z" fill="white"/>
</g>
<defs>
<clipPath id="clip0">
<rect width="30" height="30" fill="white"/>
</clipPath>
</defs>
</svg>
