<svg width="55" height="60" viewBox="0 0 55 60" fill="none" xmlns="http://www.w3.org/2000/svg">
<path d="M1.67522 0.000198516C1.54624 -0.00249159 1.41818 0.0221857 1.29958 0.072581C1.18098 0.122976 1.07457 0.197929 0.987485 0.292428C0.900395 0.386928 0.834623 0.498798 0.794565 0.62056C0.754506 0.742323 0.741084 0.871174 0.755195 0.998501L5.43839 53.1472C5.47879 53.4359 5.59975 53.7075 5.78758 53.9314C5.97541 54.1552 6.2226 54.3224 6.50118 54.414L26.367 59.8893C27.0073 60.0369 27.6732 60.0369 28.3135 59.8893L48.2428 54.402C48.5214 54.3104 48.7686 54.1432 48.9564 53.9194C49.1442 53.6955 49.2652 53.4239 49.3056 53.1352L53.9971 0.998501C54.0112 0.871174 53.9978 0.742323 53.9577 0.62056C53.9177 0.498798 53.8519 0.386928 53.7648 0.292428C53.6777 0.197929 53.5713 0.122976 53.4527 0.072581C53.3341 0.0221857 53.2061 -0.00249159 53.0771 0.000198516H1.67522ZM44.0257 11.9603C43.9811 12.4501 43.9048 13.3006 43.8557 13.8497L43.7326 15.2177C43.6827 15.7668 43.6125 16.5521 43.5747 16.9623C43.537 17.3726 43.4992 17.7124 43.4992 17.7124H18.9245C18.7955 17.7097 18.6674 17.7344 18.5488 17.7848C18.4302 17.8352 18.3238 17.9101 18.2368 18.0046C18.1497 18.0991 18.0839 18.211 18.0438 18.3327C18.0038 18.4545 17.9904 18.5834 18.0045 18.7107L18.4373 23.5109C18.4672 23.7816 18.5953 24.0322 18.7977 24.2159C19.0001 24.3997 19.2629 24.5039 19.5371 24.5092H41.9968C42.1117 24.5073 42.2256 24.5296 42.3311 24.5748C42.4366 24.62 42.5312 24.6869 42.6086 24.7712C42.686 24.8555 42.7444 24.9552 42.7799 25.0637C42.8155 25.1722 42.8274 25.2869 42.8148 25.4003C42.7695 25.8901 42.6925 26.7406 42.6434 27.2896L41.2528 42.7787C41.2029 43.3277 41.1402 44.0298 41.113 44.338C41.0858 44.6463 40.6251 45.0191 40.0895 45.1631L28.349 48.3957L27.361 48.6665C27.3527 48.6665 26.9078 48.5487 26.373 48.4017L14.6197 45.1668C14.3411 45.0752 14.094 44.908 13.9061 44.6841C13.7183 44.4602 13.5973 44.1886 13.5569 43.9L12.8016 35.4688C12.7874 35.3414 12.8007 35.2125 12.8407 35.0906C12.8807 34.9688 12.9465 34.8568 13.0336 34.7622C13.1207 34.6676 13.2271 34.5926 13.3458 34.5422C13.4644 34.4917 13.5926 34.467 13.7216 34.4698H18.4131C18.6874 34.4751 18.9504 34.5794 19.1528 34.7633C19.3552 34.9472 19.4832 35.198 19.5129 35.4688L19.8098 38.769C19.85 39.0571 19.9711 39.3282 20.1594 39.551C20.3476 39.7739 20.5953 39.9396 20.8741 40.029L26.3715 41.5029L27.3535 41.7646L28.3355 41.5029L33.8427 40.0253C34.1215 39.9358 34.3693 39.7701 34.5577 39.5473C34.746 39.3244 34.8674 39.0534 34.9078 38.7652L35.5053 32.1521C35.5195 32.0248 35.5062 31.8959 35.4662 31.7741C35.4263 31.6523 35.3606 31.5404 35.2735 31.4458C35.1865 31.3513 35.0802 31.2762 34.9616 31.2257C34.843 31.1753 34.715 31.1505 34.586 31.1531H13.4217C13.1472 31.1477 12.884 31.043 12.6817 30.8586C12.4794 30.6743 12.3517 30.4229 12.3227 30.1518L10.8573 13.8467C10.8082 13.2976 10.7312 12.4471 10.6874 11.9573C10.6824 11.8362 10.7033 11.7155 10.7488 11.603C10.7942 11.4905 10.8631 11.3888 10.9509 11.3046C11.0388 11.2205 11.1435 11.1557 11.2584 11.1146C11.3732 11.0736 11.4955 11.0571 11.6172 11.0663H43.0958C43.2178 11.0569 43.3404 11.0734 43.4556 11.1146C43.5707 11.1558 43.6756 11.2208 43.7635 11.3054C43.8514 11.3899 43.9203 11.492 43.9655 11.6049C44.0107 11.7178 44.0312 11.8389 44.0257 11.9603V11.9603Z" fill="#DD512A"/>
</svg>
