<svg width="43" height="60" viewBox="0 0 43 60" fill="none" xmlns="http://www.w3.org/2000/svg">
<path d="M42.624 11.757H0L3.996 55.089L21.3097 60L38.625 55.089L42.624 11.757Z" fill="#E6A329"/>
<path d="M21.3098 15.288V56.328L35.3348 52.353L38.7473 15.2872L21.3098 15.288Z" fill="#F1BF22"/>
<path d="M32.4696 20.604H10.9004L9.40039 36.8265L9.43113 36.7253H27.7551L27.1551 43.5892L21.3051 45.2715L15.3726 43.5622L15.0171 39.408H9.63589L10.4039 47.709L21.3089 50.805L32.2191 47.709L33.7191 31.4152H14.2716L14.5214 25.9868H28.0139L28.2156 29.097H33.6464L32.4696 20.604Z" fill="white"/>
<path d="M21.3141 20.604H10.9004L9.40039 36.8265L9.43113 36.7253H21.3156V31.4332H15.0359L15.2856 26.0048H21.3164L21.3141 20.604ZM15.0359 39.411H9.63589L10.4039 47.7075L21.3089 50.7998V45.279L15.3764 43.566L15.0359 39.411Z" fill="#EBEBEB"/>
<path d="M17.1653 5.36625H13.3711V8.09025H19.8818V0H17.1691L17.1653 5.36625ZM29.2516 0.0435H22.6366V2.8755C23.5201 3.759 23.9806 4.1835 25.2818 5.463H22.6366V8.04525H29.2508V5.4675L26.6086 2.88H29.2538L29.2516 0.0435Z" fill="white"/>
</svg>
