<svg width="60" height="60" viewBox="0 0 60 60" fill="none" xmlns="http://www.w3.org/2000/svg">
<path d="M60 30C60 31.8147 59.8384 33.5915 59.5298 35.3167C57.0209 49.3494 44.7539 60 30 60C18.8841 60 9.18 53.9547 3.99797 44.9719C2.73305 42.7813 1.73883 40.4168 1.05797 37.9225C0.367383 35.3989 0 32.7416 0 30C0 13.4315 13.4314 3.05176e-05 30 3.05176e-05C43.6751 3.05176e-05 55.2122 9.14944 58.8257 21.6612C59.5898 24.3086 60 27.1066 60 30Z" fill="#8F9ED1"/>
<path d="M15.2545 20.8874H4.20599L1.05786 37.9225C1.73872 40.4168 2.73294 42.7813 3.99786 44.9719H5.02278L6.24235 38.3744H12.3134C19.7056 38.3744 21.6929 31.7377 22.1693 28.478C22.6468 25.2196 20.2628 20.8874 15.2545 20.8874ZM16.8574 29.0277C16.5868 30.8755 15.2215 34.6383 11.0313 34.6383H6.93294L8.76481 24.7237H12.9367C17.0032 24.7237 17.128 27.18 16.8574 29.0277Z" fill="#F2F2F2"/>
<path d="M58.8256 21.6612C57.8865 21.1763 56.7672 20.8873 55.4742 20.8873H44.4256L39.9746 44.9719H45.2423L46.4619 38.3743H52.5329C55.8207 38.3743 58.0394 37.0617 59.5296 35.3168C59.8384 33.5914 60 31.8147 60 30C60 27.1065 59.5898 24.3086 58.8256 21.6612ZM57.0771 29.0277C56.8065 30.8755 55.4411 34.6383 51.2497 34.6383H47.1526L48.9845 24.7236H53.1563C57.2229 24.7236 57.3477 27.18 57.0771 29.0277Z" fill="#F2F2F2"/>
<path d="M36.2388 20.9671C34.0948 20.9671 31.2344 20.9671 29.8407 20.9671L31.0416 14.4689H25.7956L21.3445 38.5528H26.5905L29.1502 24.7029C30.0959 24.7029 31.3522 24.7029 32.503 24.7029C34.7285 24.7029 36.2388 25.1799 35.9207 27.2465C35.6028 29.3131 33.7747 38.4538 33.7747 38.4538H39.1001C39.1001 38.4538 41.1667 28.2798 41.4847 25.4182C41.8027 22.5567 39.1797 20.9671 36.2388 20.9671Z" fill="#F2F2F2"/>
</svg>
