<svg width="62" height="68" viewBox="0 0 62 68" fill="none" xmlns="http://www.w3.org/2000/svg">
<g filter="url(#filter0_d)">
<path d="M56.4067 13.8421C54.1713 10.3412 49.3644 8.88686 42.8876 9.72158C42.6588 9.74841 42.4163 9.78891 42.1875 9.81573C42.0934 9.60061 41.9992 9.38496 41.8914 9.16984C39.1043 3.25841 35.2936 0 31.1463 0C26.999 0 23.1751 3.25841 20.4011 9.16984C20.307 9.38496 20.1992 9.60061 20.105 9.81573C19.8625 9.77576 19.6337 9.74841 19.4049 9.72158C12.915 8.87319 8.12123 10.3412 5.88584 13.8421C3.65097 17.343 4.33737 22.3113 7.81143 27.8319C8.26955 28.5594 8.76765 29.2863 9.30624 30C8.76765 30.7269 8.26955 31.4406 7.81143 32.1675C4.33737 37.6882 3.65097 42.6702 5.88584 46.1579C7.7036 49.0124 11.2318 50.5072 15.9845 50.5072C17.1238 50.5009 18.2615 50.4246 19.3913 50.2779C19.6201 50.2511 19.8625 50.2106 20.0913 50.1837C20.186 50.3994 20.2802 50.6145 20.388 50.8302C23.1751 56.7411 26.9858 60 31.1326 60C35.2799 60 39.1043 56.7411 41.8777 50.8302C41.9719 50.6145 42.0797 50.3994 42.1738 50.1837C42.4163 50.2242 42.6451 50.2511 42.8744 50.2779C44.0032 50.431 45.1414 50.5072 46.2807 50.5072C51.0339 50.5072 54.5616 49.0124 56.3794 46.1579C58.6147 42.657 57.9278 37.6882 54.4543 32.1675C53.9962 31.4406 53.4981 30.7137 52.9595 30C53.4981 29.2726 53.9962 28.5594 54.4543 27.8319C57.9683 22.2982 58.6552 17.3293 56.4067 13.8421ZM22.8385 10.3144C25.1139 5.46698 28.1435 2.69299 31.1463 2.69299C34.1491 2.69299 37.1787 5.46698 39.454 10.3144C39.4556 10.3244 39.4603 10.3338 39.4677 10.3412C36.6075 11.0292 33.8177 11.9801 31.1326 13.182C28.4507 11.9743 25.6598 11.0228 22.798 10.3412C22.8248 10.3412 22.8248 10.3275 22.8385 10.3144ZM43.2784 30C43.2789 32.1544 43.1622 34.3077 42.9281 36.4495C41.2497 37.8039 39.4966 39.0625 37.6768 40.2197C35.5765 41.5683 33.3906 42.7785 31.1326 43.8421C28.8793 42.7701 26.6934 41.5604 24.5889 40.2197C22.7712 39.0594 21.0181 37.8007 19.3376 36.4495C18.8706 32.1623 18.8706 27.8372 19.3376 23.55C22.9668 20.6334 26.9259 18.1524 31.1326 16.1579C33.3864 17.2293 35.5718 18.4391 37.6768 19.7798C39.4945 20.9401 41.2476 22.1987 42.9281 23.55C43.1622 25.6923 43.2789 27.8451 43.2784 30ZM45.8499 26.0815C47.1685 27.3096 48.4098 28.6183 49.5664 30C48.4098 31.3812 47.1685 32.6898 45.8499 33.918C45.9309 32.6257 45.9714 31.3197 45.9714 30C45.9714 28.6803 45.9309 27.3743 45.8499 26.0815ZM42.3758 40.2739C41.9508 42.605 41.3339 44.8972 40.5312 47.1273C38.44 46.655 36.3876 46.0249 34.3915 45.2422C35.98 44.4075 37.5689 43.4918 39.1442 42.4956C40.2488 41.7818 41.326 41.0413 42.3758 40.2739ZM27.901 45.2422C25.9086 46.0349 23.8552 46.6655 21.7613 47.1273C20.9587 44.8972 20.3417 42.605 19.9167 40.2739C20.9534 41.0413 22.0306 41.7818 23.1483 42.4819C24.7236 43.4918 26.3126 44.4075 27.901 45.2422ZM16.4427 33.918C15.124 32.6898 13.8833 31.3812 12.7261 30C13.8833 28.6183 15.124 27.3096 16.4427 26.0815C16.3617 27.3743 16.3212 28.6803 16.3212 30C16.3212 31.3197 16.3617 32.6257 16.4427 33.918ZM19.9167 19.7261C20.3417 17.3945 20.9587 15.1023 21.7613 12.8727C23.8526 13.3445 25.9055 13.9746 27.901 14.7578C26.3126 15.5925 24.7236 16.5082 23.1483 17.5044C22.0438 18.2182 20.9666 18.9587 19.9167 19.7261ZM39.1311 17.5044C37.5689 16.5082 35.98 15.5788 34.3779 14.7578C36.3702 13.9651 38.4236 13.3345 40.5181 12.8727C41.3202 15.1023 41.9372 17.3945 42.3627 19.7261C41.326 18.9587 40.2488 18.2182 39.1311 17.5044ZM10.0873 26.3913C7.23233 21.8669 6.53226 17.8142 8.14805 15.2827C9.44089 13.263 12.2417 12.1721 16.025 12.1721C17.0381 12.1763 18.05 12.2442 19.0546 12.3741H19.0815C17.9922 15.5415 17.2343 18.8131 16.8198 22.1362C14.7448 23.8671 12.8129 25.7633 11.043 27.8051C10.7064 27.3475 10.3834 26.8762 10.0873 26.3913ZM19.0415 47.6123C18.0369 47.7427 17.0249 47.81 16.0119 47.8142C12.228 47.8142 9.42722 46.737 8.1349 44.7036C6.51911 42.1721 7.21918 38.1195 10.0736 33.595C10.3698 33.1238 10.6932 32.6388 11.0299 32.1675C12.7992 34.2099 14.7311 36.1055 16.8061 37.8365C17.2211 41.1601 17.979 44.4317 19.0683 47.5986C19.0683 47.6123 19.0547 47.6123 19.0415 47.6123ZM39.454 49.6856C37.1787 54.533 34.1491 57.307 31.1463 57.307C28.1435 57.307 25.1139 54.533 22.8385 49.6856C22.8369 49.6757 22.8322 49.6662 22.8248 49.6588C25.6851 48.9708 28.4748 48.0199 31.1599 46.8175C33.8419 48.0257 36.6327 48.9772 39.4945 49.6588C39.4677 49.6588 39.4677 49.672 39.454 49.6856ZM52.2052 33.6087C55.0602 38.1326 55.7603 42.1858 54.1445 44.7173C52.5287 47.2483 48.5565 48.3123 43.251 47.6123H43.2242C44.3135 44.4448 45.072 41.1733 45.4864 37.8502C47.5614 36.1192 49.4933 34.223 51.2627 32.1812C51.5862 32.6525 51.9091 33.1238 52.2052 33.6087ZM45.4728 22.1498C45.0583 18.8262 44.3004 15.5546 43.2111 12.3877H43.2379C48.5429 11.7008 52.515 12.7512 54.1308 15.2827C55.7466 17.8142 55.0465 21.8669 52.1921 26.3913C51.896 26.8626 51.5725 27.3475 51.2359 27.8188C49.4744 25.7733 47.5467 23.8771 45.4728 22.1498Z" fill="url(#paint0_linear)"/>
<path d="M31.1463 24.6677C28.2014 24.6677 25.814 27.0551 25.814 30C25.814 32.9449 28.2014 35.3318 31.1463 35.3318C34.0912 35.3318 36.4786 32.9449 36.4786 30C36.4765 27.0556 34.0902 24.6698 31.1463 24.6677ZM31.1463 32.6388C29.6888 32.6388 28.5069 31.4575 28.5069 30C28.5069 28.5425 29.6888 27.3607 31.1463 27.3607C32.6038 27.3607 33.7856 28.5425 33.7856 30C33.783 31.4564 32.6027 32.6367 31.1463 32.6388Z" fill="url(#paint1_linear)"/>
</g>
<defs>
<filter id="filter0_d" x="0.595947" y="0" width="61.1087" height="68" filterUnits="userSpaceOnUse" color-interpolation-filters="sRGB">
<feFlood flood-opacity="0" result="BackgroundImageFix"/>
<feColorMatrix in="SourceAlpha" type="matrix" values="0 0 0 0 0 0 0 0 0 0 0 0 0 0 0 0 0 0 127 0"/>
<feOffset dy="4"/>
<feGaussianBlur stdDeviation="2"/>
<feColorMatrix type="matrix" values="0 0 0 0 0 0 0 0 0 0 0 0 0 0 0 0 0 0 0.25 0"/>
<feBlend mode="normal" in2="BackgroundImageFix" result="effect1_dropShadow"/>
<feBlend mode="normal" in="SourceGraphic" in2="effect1_dropShadow" result="shape"/>
</filter>
<linearGradient id="paint0_linear" x1="31.1503" y1="-2.31597" x2="31.1503" y2="62.9633" gradientUnits="userSpaceOnUse">
<stop stop-color="#00EFD1"/>
<stop offset="1" stop-color="#00ACEA"/>
</linearGradient>
<linearGradient id="paint1_linear" x1="31.1463" y1="-2.31595" x2="31.1463" y2="62.9632" gradientUnits="userSpaceOnUse">
<stop stop-color="#00EFD1"/>
<stop offset="1" stop-color="#00ACEA"/>
</linearGradient>
</defs>
</svg>
