<svg width="60" height="60" viewBox="0 0 60 60" fill="none" xmlns="http://www.w3.org/2000/svg">
<path d="M60 30C60 30.927 59.9584 31.8429 59.8751 32.7478C59.8114 33.4642 59.7207 34.1719 59.6057 34.8711C57.2791 49.1229 44.9094 60 30 60C22.4057 60 15.4714 57.1788 10.1865 52.5257C8.23348 50.8077 6.50566 48.8387 5.05348 46.669C1.86117 41.902 0 36.1678 0 30C0 13.4314 13.4314 0 30 0C46.5686 0 60 13.4314 60 30Z" fill="#F2F2F2"/>
<path d="M52.3554 33.3955C51.4456 33.7396 51.4824 33.7457 51.0011 32.869C50.3864 31.7523 50.0595 30.578 50.0312 29.3009C50.0079 28.2049 50.3079 27.1862 50.6852 26.187C50.9863 25.3923 50.5946 25.1119 49.9063 25.0396C49.4055 24.9881 48.8888 24.993 48.3868 25.0445C47.0814 25.178 46.9529 25.2906 46.6063 26.558C46.4007 27.3098 46.2365 28.0678 45.8949 28.7816C45.0524 30.5387 44.0949 32.231 43.1129 33.911C42.9365 34.2135 42.7908 34.5391 42.5423 34.7975C41.8308 33.7322 41.5627 32.5555 41.5027 31.3212C41.4427 30.1028 41.8162 28.9702 42.2263 27.8497C42.3647 27.4726 42.2496 27.2387 41.9239 27.0758C41.7794 27.0036 41.6178 26.9362 41.4598 26.9239C40.6223 26.8578 39.7872 26.8676 38.9704 27.0966C38.603 27.1982 38.363 27.4039 38.281 27.8166C38.1218 28.6235 37.8733 29.4071 37.5377 30.1615C36.6071 32.2505 35.6826 34.3431 34.7532 36.4334C33.945 38.2493 33.1491 40.07 32.1916 41.8138C32.1242 41.9374 32.0679 42.1518 31.8989 42.1089C31.7275 42.066 31.7875 41.8554 31.7801 41.7109C31.725 40.6823 32.0055 39.7015 32.2442 38.7194C32.6226 37.1655 33.0364 35.619 33.4381 34.07C33.5532 33.6255 33.3597 33.3267 32.9911 33.1137C32.461 32.8087 31.9332 32.7941 31.3589 33.2214C31.4373 32.5895 31.4716 32.0348 31.4446 31.4802C31.3834 30.2435 30.8103 29.439 29.8124 29.2528C29.0839 29.1169 28.3944 29.3287 27.743 29.6373C26.2246 30.3561 25.0039 31.4398 23.9777 32.7548C23.8577 32.9079 23.7365 33.0487 23.5626 33.143C21.6365 34.1924 19.7116 35.2418 17.7904 36.3009C17.5798 36.4185 17.4439 36.3854 17.292 36.2225C16.3246 35.1854 15.2018 34.3295 14.09 33.4614C12.536 32.2467 10.9284 31.0957 9.5875 29.6312C8.80386 28.7741 8.14996 27.8348 7.823 26.7011C7.2891 24.8471 7.68835 23.1206 8.57734 21.4799C9.62921 19.539 11.1892 18.0403 12.9095 16.7055C15.6414 14.5871 18.6377 12.9047 21.7956 11.5199C25.332 9.9709 29.0005 8.97293 32.9078 9.12351C34.4556 9.18351 35.958 9.45164 37.3368 10.2096C38.3127 10.746 38.9593 11.5211 39.1417 12.6586C39.3561 13.9908 39.0364 15.2215 38.445 16.3884C37.1239 18.9954 35.0239 20.8419 32.5417 22.288C30.4748 23.4916 28.245 24.2558 25.8853 24.6561C24.5813 24.8777 23.2723 25.0112 21.9609 24.8116C20.4559 24.5827 19.0649 24.0794 18.0352 22.8671C17.9164 22.7276 17.7658 22.6308 17.5637 22.7287C17.3568 22.8292 17.3727 23.0128 17.3923 23.1892C17.4069 23.3103 17.4401 23.4328 17.4829 23.548C17.7584 24.2913 18.2739 24.8521 18.8775 25.3419C20.4474 26.619 22.3074 26.9938 24.2604 27.0318C26.1719 27.0697 28.0539 26.8273 29.9164 26.3816C34.1175 25.3775 37.6368 23.3167 40.2058 19.7852C41.7413 17.6742 42.7136 15.3477 42.6278 12.6857C42.5727 10.9971 42.0045 9.50566 40.7739 8.29348C39.3106 6.85465 37.4948 6.13101 35.5465 5.69637C33.3767 5.21391 31.1849 5.14535 28.971 5.40984C27.0449 5.64 25.1629 6.03433 23.331 6.66492C20.5281 7.63101 17.8209 8.81754 15.2298 10.26C12.5752 11.7367 10.0735 13.4278 7.87925 15.5461C5.93722 17.4207 4.26824 19.489 3.32781 22.0567C2.92621 23.1562 2.63722 24.2865 2.90664 25.4755C3.25199 27.0061 4.00621 28.331 4.99808 29.5261C6.49808 31.3359 8.33851 32.7612 10.2365 34.1228C11.761 35.2174 13.3565 36.2142 14.821 37.3909C15.236 37.7239 15.2336 37.7239 14.745 37.9799C14.1744 38.2774 13.5977 38.5639 13.0369 38.8811C10.7754 40.1596 8.58976 41.5457 6.80558 43.4719C5.92761 44.4209 5.33125 45.4862 5.05339 46.669C6.50558 48.8388 8.23339 50.8078 10.1864 52.5257C13.5183 52.2661 16.0689 50.5322 17.9534 47.6645C18.8632 46.2796 19.2893 44.7123 19.4498 43.0591C19.5906 41.602 19.4424 40.1913 19.0138 38.8003C18.9392 38.5554 18.6612 38.3118 18.7702 38.0962C18.8718 37.8978 19.178 37.7974 19.4032 37.6677C20.3118 37.1399 21.2228 36.6196 22.1583 36.082C22.1987 36.2829 22.1203 36.4004 22.0861 36.5277C21.5498 38.4955 21.1763 40.4791 21.5841 42.5241C21.8376 43.7975 22.26 44.9962 23.0632 46.0506C23.8898 47.1355 25.7351 47.0117 26.4844 46.0212C27.1959 45.0807 27.6673 44.0203 28.1583 42.9648C28.4277 42.3868 28.675 41.7991 28.9322 41.215C28.8844 41.9178 28.8869 42.6035 28.9127 43.2868C28.9383 43.9603 29.0461 44.6252 29.3963 45.2203C29.8175 45.9354 30.6098 46.1436 31.3457 45.7615C32.1221 45.3586 32.6511 44.695 33.0624 43.975C34.8269 40.8783 36.464 37.7154 37.8195 34.4129C38.1085 33.7113 38.4048 33.0109 38.7318 32.2309C38.7819 32.4868 38.8151 32.6435 38.8457 32.8003C39.1469 34.3738 39.6832 35.8628 40.4596 37.2623C40.6261 37.5623 40.6077 37.7693 40.3971 38.057C39.6821 39.0305 38.8983 39.9464 38.1257 40.8721C37.4767 41.6509 36.7824 42.3954 36.2338 43.2525C35.7416 44.0239 36.0244 44.8137 36.8437 44.9889C37.0959 45.0428 37.3616 45.0587 37.62 45.055C39.0515 45.0378 40.3727 44.6105 41.6034 43.91C43.26 42.966 44.2422 41.5822 44.1968 39.6121C44.176 38.7157 43.9335 37.855 43.5723 37.0332C43.4928 36.8508 43.489 36.7186 43.6078 36.5471C44.7552 34.9038 45.769 33.1811 46.7009 31.408C46.8662 31.0958 46.9825 30.7492 47.2495 30.4444C47.285 30.568 47.3131 30.6452 47.329 30.7248C47.6254 32.1942 48.0245 33.6305 48.7739 34.9419C48.9796 35.3007 48.8768 35.4831 48.5928 35.7231C47.6144 36.5545 46.7891 37.5243 46.1413 38.635C45.6368 39.4994 45.2915 40.4226 45.2952 41.4354C45.2989 42.5619 46.1609 43.2255 47.2593 42.961C48.4042 42.6867 49.4658 42.2202 50.4184 41.5235C52.4939 40.0039 53.1025 38.401 52.4523 36.1639C52.1977 35.2835 52.2025 35.2983 53.0854 35.0313C55.0164 34.4484 56.9755 34.4239 58.9445 34.7448C59.1674 34.7815 59.3878 34.8232 59.6057 34.8709C59.7208 34.1718 59.8114 33.4639 59.8751 32.7476C57.3563 32.1319 54.8411 32.4514 52.3554 33.3955ZM11.553 49.1485C10.9934 49.3469 10.4118 49.4314 9.8166 49.3849C9.07574 49.3261 8.60558 48.8033 8.55777 48.0171C8.50386 47.111 8.7721 46.293 9.16878 45.4971C9.88996 44.0522 11.101 43.0714 12.3366 42.109C13.5378 41.1723 14.8285 40.3726 16.1337 39.5951C16.5292 39.36 16.5353 39.3625 16.6259 39.8339C16.7434 40.4388 16.8488 41.0449 16.8095 41.5948C16.9125 44.8922 14.5175 48.0991 11.553 49.1485ZM29.526 32.5212C29.3179 33.911 28.8635 35.2346 28.3799 36.5423C27.7211 38.3277 27.0795 40.1215 26.2505 41.8383C26.0607 42.2338 25.8611 42.6268 25.5538 42.9489C25.2637 43.2538 25.0064 43.2183 24.8057 42.846C24.4138 42.1186 24.4628 41.3093 24.3992 40.7215C24.4176 37.7729 25.407 35.3631 27.0367 33.197C27.4922 32.5934 28.0738 32.1023 28.8441 31.9051C29.3669 31.7719 29.608 31.9825 29.526 32.5212ZM40.9383 41.2506C40.3799 42.2155 39.5754 42.9171 38.5885 43.4167C38.4831 43.4693 38.3473 43.5623 38.2518 43.4387C38.1612 43.3223 38.3069 43.2452 38.373 43.1717C39.3538 42.1003 40.3224 41.0203 41.1954 39.8583C41.2089 39.8399 41.242 39.8374 41.3166 39.8057C41.308 40.3433 41.1905 40.8159 40.9383 41.2506ZM47.7109 41.209C47.5653 41.2775 47.3963 41.4061 47.2543 41.2959C47.0976 41.1748 47.1599 40.9604 47.2077 40.7964C47.4306 40.0482 47.7306 39.3319 48.1444 38.6645C48.4921 38.1025 48.9232 37.6114 49.397 37.1535C49.588 36.9698 49.6737 36.9919 49.7386 37.2564C49.806 37.5269 49.8121 37.7975 49.817 38.073C49.8048 39.5804 49.0395 40.5833 47.7109 41.209Z" fill="#CD6699"/>
</svg>
