<svg width="60" height="60" viewBox="0 0 60 60" fill="none" xmlns="http://www.w3.org/2000/svg">
<path d="M60 30C60 32.7135 59.64 35.3436 58.9641 37.8441C57.3845 43.691 54.082 48.8302 49.6335 52.6836C44.3719 57.2425 37.5086 60 30 60C13.4314 60 0 46.5686 0 30C0 13.4314 13.4314 0 30 0C46.5686 0 60 13.4314 60 30Z" fill="#0078CF"/>
<path d="M58.9641 37.8441C57.3845 43.691 54.0821 48.8302 49.6335 52.6836C49.1989 52.707 48.7445 52.718 48.2731 52.718C42.0441 52.718 38.5825 48.8253 36.8621 45.9049L42.5094 42.5119C42.5094 42.5119 44.4306 46.5943 48.0319 46.5943C51.6344 46.5943 53.0755 45.3932 53.0755 42.6319C53.0755 39.2694 41.4282 38.0694 39.627 32.3058C37.8258 26.5421 40.227 18.3759 48.6331 18.9772C53.8861 19.3519 56.8409 21.9319 58.3187 23.8139L52.7154 27.862C51.5142 24.3809 46.5918 24.3809 45.6305 27.262C44.6705 30.1445 47.9117 31.8245 52.9554 33.5057C55.5465 34.369 57.6306 35.962 58.9641 37.8441Z" fill="#F2F2F2"/>
<path d="M35.2668 19.8968H9.73901V25.9221H19.094V52.084H25.9119V25.9221H35.2668V19.8968Z" fill="#F2F2F2"/>
</svg>
