<svg xmlns="http://www.w3.org/2000/svg" xmlns:xlink="http://www.w3.org/1999/xlink" width="450" height="284" viewBox="0 0 450 284">
  <defs>
    <clipPath id="clip-path">
      <rect id="Rectangle_34" data-name="Rectangle 34" width="450" height="284" transform="translate(0 1262)" fill="#fff" stroke="#707070" stroke-width="1"/>
    </clipPath>
  </defs>
  <g id="developer" transform="translate(0 -1262)" clip-path="url(#clip-path)">
    <g id="developer-2" data-name="developer" transform="translate(0.163 1262)">
      <path id="Path_53" data-name="Path 53" d="M473.06,255.788a83.787,83.787,0,0,1,6.934-26.443q1.565-3.5,3.445-6.838a.511.511,0,0,0-.881-.515,84.943,84.943,0,0,0-9.452,26.076q-.71,3.833-1.067,7.721c-.06.654.96.65,1.021,0Z" transform="translate(-187.079 -166.936)" fill="#e6e6e6"/>
      <circle id="Ellipse_4" data-name="Ellipse 4" cx="6.463" cy="6.463" r="6.463" transform="translate(292.37 44.281)" fill="#e6e6e6"/>
      <path id="Path_54" data-name="Path 54" d="M473.721,255.96a54.355,54.355,0,0,1,4.5-17.155q1.015-2.268,2.235-4.436a.331.331,0,0,0-.572-.334,55.107,55.107,0,0,0-6.132,16.917q-.46,2.487-.692,5.009C473.02,256.384,473.682,256.381,473.721,255.96Z" transform="translate(-187.079 -166.936)" fill="#e6e6e6"/>
      <circle id="Ellipse_5" data-name="Ellipse 5" cx="4.193" cy="4.193" r="4.193" transform="translate(290.787 60.108)" fill="#e6e6e6"/>
      <path id="Path_55" data-name="Path 55" d="M472.886,255.564a54.354,54.354,0,0,1-7-16.293q-.594-2.413-.966-4.873a.331.331,0,0,0-.656.088,55.105,55.105,0,0,0,5.57,17.11q1.167,2.244,2.535,4.375c.23.359.75-.051.522-.407Z" transform="translate(-187.079 -166.936)" fill="#e6e6e6"/>
      <circle id="Ellipse_6" data-name="Ellipse 6" cx="4.193" cy="4.193" r="4.193" transform="translate(272.982 59.814)" fill="#e6e6e6"/>
      <path id="Path_56" data-name="Path 56" d="M460.013,259.274v-8.238a3.093,3.093,0,0,1,3.089-3.089h19.223a3.093,3.093,0,0,1,3.089,3.089v8.238a3.093,3.093,0,0,1-3.089,3.089H463.1a3.093,3.093,0,0,1-3.089-3.089Z" transform="translate(-187.079 -166.936)" fill="#f2f2f2"/>
      <path id="Path_57" data-name="Path 57" d="M481.639,206.754H473.4a3.093,3.093,0,0,1-3.089-3.089v-33.64a3.093,3.093,0,0,1,3.089-3.089h8.238a3.093,3.093,0,0,1,3.089,3.089v33.64a3.093,3.093,0,0,1-3.089,3.089Z" transform="translate(-187.079 -166.936)" fill="#f2f2f2"/>
      <rect id="Rectangle_35" data-name="Rectangle 35" width="13.731" height="2.746" transform="translate(283.576 6.522)" fill="#ccc"/>
      <rect id="Rectangle_36" data-name="Rectangle 36" width="13.731" height="2.746" transform="translate(283.576 27.804)" fill="#ccc"/>
      <path id="Path_58" data-name="Path 58" d="M502.235,206.754H494a3.093,3.093,0,0,1-3.089-3.089v-33.64A3.093,3.093,0,0,1,494,166.936h8.238a3.093,3.093,0,0,1,3.089,3.089v33.64a3.093,3.093,0,0,1-3.089,3.089Z" transform="translate(-187.079 -166.936)" fill="#f2f2f2"/>
      <rect id="Rectangle_37" data-name="Rectangle 37" width="13.731" height="2.746" transform="translate(304.172 6.522)" fill="#ccc"/>
      <rect id="Rectangle_38" data-name="Rectangle 38" width="13.731" height="2.746" transform="translate(304.172 27.804)" fill="#ccc"/>
      <path id="Path_59" data-name="Path 59" d="M522.831,206.754h-8.238a3.093,3.093,0,0,1-3.089-3.089v-33.64a3.093,3.093,0,0,1,3.089-3.089h8.238a3.093,3.093,0,0,1,3.089,3.089v33.64a3.093,3.093,0,0,1-3.089,3.089Z" transform="translate(-187.079 -166.936)" fill="#f2f2f2"/>
      <rect id="Rectangle_39" data-name="Rectangle 39" width="13.731" height="2.746" transform="translate(324.768 6.522)" fill="#ccc"/>
      <rect id="Rectangle_40" data-name="Rectangle 40" width="13.731" height="2.746" transform="translate(324.768 27.804)" fill="#ccc"/>
      <path id="Path_60" data-name="Path 60" d="M533.815,262.363h-8.238a3.093,3.093,0,0,1-3.089-3.089v-33.64a3.093,3.093,0,0,1,3.089-3.089h8.238a3.093,3.093,0,0,1,3.089,3.089v33.64a3.093,3.093,0,0,1-3.089,3.089Z" transform="translate(-187.079 -166.936)" fill="#f2f2f2"/>
      <rect id="Rectangle_41" data-name="Rectangle 41" width="13.731" height="2.746" transform="translate(335.752 62.131)" fill="#ccc"/>
      <rect id="Rectangle_42" data-name="Rectangle 42" width="13.731" height="2.746" transform="translate(335.752 83.413)" fill="#ccc"/>
      <path id="Path_61" data-name="Path 61" d="M554.411,262.363h-8.238a3.093,3.093,0,0,1-3.089-3.089v-33.64a3.093,3.093,0,0,1,3.089-3.089h8.238a3.093,3.093,0,0,1,3.089,3.089v33.64A3.093,3.093,0,0,1,554.411,262.363Z" transform="translate(-187.079 -166.936)" fill="#f2f2f2"/>
      <rect id="Rectangle_43" data-name="Rectangle 43" width="13.731" height="2.746" transform="translate(356.348 62.131)" fill="#ccc"/>
      <rect id="Rectangle_44" data-name="Rectangle 44" width="13.731" height="2.746" transform="translate(356.348 83.413)" fill="#ccc"/>
      <path id="Path_62" data-name="Path 62" d="M575.007,262.363h-8.238a3.093,3.093,0,0,1-3.089-3.089v-33.64a3.093,3.093,0,0,1,3.089-3.089h8.238a3.093,3.093,0,0,1,3.089,3.089v33.64a3.093,3.093,0,0,1-3.089,3.089Z" transform="translate(-187.079 -166.936)" fill="#f2f2f2"/>
      <rect id="Rectangle_45" data-name="Rectangle 45" width="13.731" height="2.746" transform="translate(376.944 62.131)" fill="#ccc"/>
      <rect id="Rectangle_46" data-name="Rectangle 46" width="13.731" height="2.746" transform="translate(376.944 83.413)" fill="#ccc"/>
      <path id="Path_63" data-name="Path 63" d="M479.579,317.972h-8.238a3.093,3.093,0,0,1-3.089-3.089v-33.64a3.093,3.093,0,0,1,3.089-3.089h8.238a3.093,3.093,0,0,1,3.089,3.089v33.64A3.093,3.093,0,0,1,479.579,317.972Z" transform="translate(-187.079 -166.936)" fill="#f2f2f2"/>
      <rect id="Rectangle_47" data-name="Rectangle 47" width="13.731" height="2.746" transform="translate(281.516 117.739)" fill="#ccc"/>
      <rect id="Rectangle_48" data-name="Rectangle 48" width="13.731" height="2.746" transform="translate(281.516 139.022)" fill="#ccc"/>
      <path id="Path_64" data-name="Path 64" d="M500.175,317.972h-8.238a3.093,3.093,0,0,1-3.089-3.089v-33.64a3.093,3.093,0,0,1,3.089-3.089h8.238a3.093,3.093,0,0,1,3.089,3.089v33.64A3.093,3.093,0,0,1,500.175,317.972Z" transform="translate(-187.079 -166.936)" fill="#f2f2f2"/>
      <rect id="Rectangle_49" data-name="Rectangle 49" width="13.731" height="2.746" transform="translate(302.112 117.739)" fill="#ccc"/>
      <rect id="Rectangle_50" data-name="Rectangle 50" width="13.731" height="2.746" transform="translate(302.112 139.022)" fill="#ccc"/>
      <path id="Path_65" data-name="Path 65" d="M520.771,317.972h-8.238a3.093,3.093,0,0,1-3.089-3.089v-33.64a3.093,3.093,0,0,1,3.089-3.089h8.238a3.093,3.093,0,0,1,3.089,3.089v33.64A3.093,3.093,0,0,1,520.771,317.972Z" transform="translate(-187.079 -166.936)" fill="#f2f2f2"/>
      <rect id="Rectangle_51" data-name="Rectangle 51" width="13.731" height="2.746" transform="translate(322.708 117.739)" fill="#ccc"/>
      <rect id="Rectangle_52" data-name="Rectangle 52" width="13.731" height="2.746" transform="translate(322.708 139.022)" fill="#ccc"/>
      <path id="Path_66" data-name="Path 66" d="M543.426,206.754h-8.238a3.093,3.093,0,0,1-3.089-3.089v-33.64a3.093,3.093,0,0,1,3.089-3.089h8.238a3.093,3.093,0,0,1,3.089,3.089v33.64a3.093,3.093,0,0,1-3.089,3.089Z" transform="translate(-187.079 -166.936)" fill="#f2f2f2"/>
      <rect id="Rectangle_53" data-name="Rectangle 53" width="13.731" height="2.746" transform="translate(345.363 6.522)" fill="#ccc"/>
      <rect id="Rectangle_54" data-name="Rectangle 54" width="13.731" height="2.746" transform="translate(345.363 27.804)" fill="#ccc"/>
      <path id="Path_67" data-name="Path 67" d="M564.022,206.754h-8.238a3.093,3.093,0,0,1-3.089-3.089v-33.64a3.093,3.093,0,0,1,3.089-3.089h8.238a3.093,3.093,0,0,1,3.089,3.089v33.64a3.093,3.093,0,0,1-3.089,3.089Z" transform="translate(-187.079 -166.936)" fill="#f2f2f2"/>
      <rect id="Rectangle_55" data-name="Rectangle 55" width="13.731" height="2.746" transform="translate(365.959 6.522)" fill="#ccc"/>
      <rect id="Rectangle_56" data-name="Rectangle 56" width="13.731" height="2.746" transform="translate(365.959 27.804)" fill="#ccc"/>
      <path id="Path_68" data-name="Path 68" d="M584.618,206.754H576.38a3.093,3.093,0,0,1-3.089-3.089v-33.64a3.093,3.093,0,0,1,3.089-3.089h8.238a3.093,3.093,0,0,1,3.089,3.089v33.64a3.093,3.093,0,0,1-3.089,3.089Z" transform="translate(-187.079 -166.936)" fill="#f2f2f2"/>
      <rect id="Rectangle_57" data-name="Rectangle 57" width="13.731" height="2.746" transform="translate(386.555 6.522)" fill="#ccc"/>
      <rect id="Rectangle_58" data-name="Rectangle 58" width="13.731" height="2.746" transform="translate(386.555 27.804)" fill="#ccc"/>
      <path id="Path_69" data-name="Path 69" d="M605.214,206.754h-8.238a3.093,3.093,0,0,1-3.089-3.089v-33.64a3.093,3.093,0,0,1,3.089-3.089h8.238a3.093,3.093,0,0,1,3.089,3.089v33.64a3.093,3.093,0,0,1-3.089,3.089Z" transform="translate(-187.079 -166.936)" fill="#f2f2f2"/>
      <rect id="Rectangle_59" data-name="Rectangle 59" width="13.731" height="2.746" transform="translate(407.151 6.522)" fill="#ccc"/>
      <rect id="Rectangle_60" data-name="Rectangle 60" width="13.731" height="2.746" transform="translate(407.151 27.804)" fill="#ccc"/>
      <path id="Path_70" data-name="Path 70" d="M636.067,207.784H440.407a.687.687,0,0,1,0-1.373h195.66a.687.687,0,0,1,0,1.373Z" transform="translate(-187.079 -166.936)" fill="#ccc"/>
      <path id="Path_71" data-name="Path 71" d="M636.067,263.393H440.407a.687.687,0,0,1,0-1.373h195.66a.687.687,0,0,1,0,1.373Z" transform="translate(-187.079 -166.936)" fill="#ccc"/>
      <path id="Path_72" data-name="Path 72" d="M636.067,319H440.407a.687.687,0,0,1,0-1.373h195.66a.687.687,0,0,1,0,1.373Z" transform="translate(-187.079 -166.936)" fill="#ccc"/>
      <path id="Path_73" data-name="Path 73" d="M586.337,311.4a83.784,83.784,0,0,1,6.934-26.443q1.565-3.5,3.445-6.838a.511.511,0,0,0-.881-.515,84.944,84.944,0,0,0-9.452,26.076q-.71,3.833-1.067,7.721c-.06.654.96.65,1.021,0Z" transform="translate(-187.079 -166.936)" fill="#e6e6e6"/>
      <circle id="Ellipse_7" data-name="Ellipse 7" cx="6.463" cy="6.463" r="6.463" transform="translate(405.646 99.889)" fill="#e6e6e6"/>
      <path id="Path_74" data-name="Path 74" d="M587,311.568a54.358,54.358,0,0,1,4.5-17.155q1.015-2.268,2.235-4.436a.331.331,0,0,0-.572-.334,55.1,55.1,0,0,0-6.132,16.917q-.46,2.487-.692,5.009C586.3,311.993,586.959,311.99,587,311.568Z" transform="translate(-187.079 -166.936)" fill="#e6e6e6"/>
      <circle id="Ellipse_8" data-name="Ellipse 8" cx="4.193" cy="4.193" r="4.193" transform="translate(404.064 115.717)" fill="#e6e6e6"/>
      <path id="Path_75" data-name="Path 75" d="M586.163,311.173a54.355,54.355,0,0,1-7-16.293q-.595-2.413-.966-4.873a.331.331,0,0,0-.656.088,55.1,55.1,0,0,0,5.57,17.11q1.167,2.244,2.535,4.375c.23.358.75-.051.522-.407Z" transform="translate(-187.079 -166.936)" fill="#e6e6e6"/>
      <circle id="Ellipse_9" data-name="Ellipse 9" cx="4.193" cy="4.193" r="4.193" transform="translate(386.259 115.423)" fill="#e6e6e6"/>
      <path id="Path_76" data-name="Path 76" d="M573.29,314.882v-8.238a3.093,3.093,0,0,1,3.089-3.089H595.6a3.093,3.093,0,0,1,3.089,3.089v8.238a3.093,3.093,0,0,1-3.089,3.089H576.38A3.093,3.093,0,0,1,573.29,314.882Z" transform="translate(-187.079 -166.936)" fill="#f2f2f2"/>
      <path id="Path_77" data-name="Path 77" d="M449.332,416.488H187.765a.687.687,0,0,1,0-1.373H449.332a.687.687,0,0,1,0,1.373Z" transform="translate(-187.079 -166.936)" fill="#3f3d56"/>
      <circle id="Ellipse_10" data-name="Ellipse 10" cx="18.536" cy="18.536" r="18.536" transform="translate(118.123 122.545)" fill="#2f2e41"/>
      <path id="Path_78" data-name="Path 78" d="M119.047,260.074l-.491-8.4,32.175-5.894.725,12.4Z" fill="#ffb8b8"/>
      <path id="Path_79" data-name="Path 79" d="M299.754,410.656h16.232v10.22H289.533A10.22,10.22,0,0,1,299.754,410.656Z" transform="translate(513.069 -77.675) rotate(86.655)" fill="#2f2e41"/>
      <path id="Path_80" data-name="Path 80" d="M133.041,260l-5.345,6.5L100.074,248.98l7.888-9.6Z" fill="#ffb8b8"/>
      <path id="Path_81" data-name="Path 81" d="M311.952,432.367h16.232v10.22H301.731A10.22,10.22,0,0,1,311.952,432.367Z" transform="matrix(0.635, -0.773, 0.773, 0.635, -410.076, 236.07)" fill="#2f2e41"/>
      <path id="Path_82" data-name="Path 82" d="M304.74,396.7l-3.652,17.217a2.746,2.746,0,0,0,2.642,3.316l35.9.579a2.746,2.746,0,0,0,2.749-3.223l-3.141-17.8a2.746,2.746,0,0,0-2.7-2.269H307.427A2.746,2.746,0,0,0,304.74,396.7Z" transform="translate(-187.079 -166.936)" fill="#2f2e41"/>
      <path id="Path_83" data-name="Path 83" d="M310.694,402.758s-35.013-21.969-41.878-10.3c-3.433,5.835-1.716,11.5.858,15.7a23.775,23.775,0,0,0,9.888,8.85l28.386,13.891,10.3-10.984-6.865-6.179Z" transform="translate(-187.079 -166.936)" fill="#2f2e41"/>
      <path id="Path_84" data-name="Path 84" d="M328.544,399.325S373.854,386.281,364.929,411s-42.565,15.1-42.565,15.1l-3.433-10.3,11.671-8.238Z" transform="translate(-187.079 -166.936)" fill="#2f2e41"/>
      <circle id="Ellipse_11" data-name="Ellipse 11" cx="16.862" cy="16.862" r="16.862" transform="translate(120.03 128.452)" fill="#ffb8b8"/>
      <path id="Path_85" data-name="Path 85" d="M324.854,402.05a90.619,90.619,0,0,1-20.772-2.737l-.2-.055-9.409-43.282a15.944,15.944,0,0,1,10.252-18.5,55.237,55.237,0,0,1,35.218-.7h0a16.113,16.113,0,0,1,10.734,19.061l-10.51,43.385-.148.07C335.65,401.361,330.189,402.05,324.854,402.05Z" transform="translate(-187.079 -166.936)" fill="#ccc"/>
      <path id="Path_86" data-name="Path 86" d="M312.214,405.412a6.9,6.9,0,0,1,9.938-3.647l18.527-16.082,1.676,12.638L324.5,411.655a6.941,6.941,0,0,1-12.29-6.243Z" transform="translate(-187.079 -166.936)" fill="#ffb8b8"/>
      <path id="Path_87" data-name="Path 87" d="M329.884,408.92a3.112,3.112,0,0,1-.89-.131,3.057,3.057,0,0,1-2.034-1.934l-2.236-6.336a3.07,3.07,0,0,1,.894-3.366L350.861,382l-9.95-44.392.253-.061c.1-.025,10.3-2.346,14.476,8.795,2.926,7.8,13.752,24.768,12.988,36.232A10.219,10.219,0,0,1,360.168,392l-28.414,16.28a3.059,3.059,0,0,1-1.87.642Z" transform="translate(-187.079 -166.936)" fill="#ccc"/>
      <path id="Path_88" data-name="Path 88" d="M332.716,403.906a6.9,6.9,0,0,0-9.938-3.647l-18.527-16.081-1.676,12.638,17.85,13.334a6.941,6.941,0,0,0,12.29-6.243Z" transform="translate(-187.079 -166.936)" fill="#ffb8b8"/>
      <path id="Path_89" data-name="Path 89" d="M316.9,408.92a3.059,3.059,0,0,1-1.87-.642l-30.474-14.907a10.219,10.219,0,0,1-8.459-9.424c-.764-11.464,12.122-29.8,15.048-37.605,4.177-11.141,14.373-8.821,14.476-8.795l.253.061-12.01,45.765,27.3,13.781a3.07,3.07,0,0,1,.894,3.366l-2.236,6.336a3.057,3.057,0,0,1-2.034,1.934A3.112,3.112,0,0,1,316.9,408.92Z" transform="translate(-187.079 -166.936)" fill="#ccc"/>
      <path id="Path_90" data-name="Path 90" d="M353.259,415.8h-61.1A4.811,4.811,0,0,1,287.352,411v-33.64a4.811,4.811,0,0,1,4.806-4.806h61.1a4.811,4.811,0,0,1,4.806,4.806V411A4.811,4.811,0,0,1,353.259,415.8Z" transform="translate(-187.079 -166.936)" fill="#fff"/>
      <circle id="Ellipse_12" data-name="Ellipse 12" cx="4.119" cy="4.119" r="4.119" transform="translate(131.51 222.121)"/>
      <path id="Path_91" data-name="Path 91" d="M306.94,311.564c-1-2.535.64-5.556,3.073-6.784s5.368-.994,7.969-.185c2.186.68,4.236,1.734,6.369,2.567a14.254,14.254,0,0,0,6.7,1.192,6.744,6.744,0,0,0,5.471-3.625,6.647,6.647,0,0,0-1.178-6.665,12.906,12.906,0,0,0-5.912-3.8c-5.017-1.767-10.812-1.819-15.469.75s-7.823,8.039-6.86,13.271" transform="translate(-187.079 -166.936)" fill="#2f2e41"/>
      <path id="Path_92" data-name="Path 92" d="M209.5,408.469a83.786,83.786,0,0,1,6.935-26.444q1.565-3.5,3.445-6.838a.511.511,0,0,0-.881-.515,84.944,84.944,0,0,0-9.452,26.076q-.71,3.833-1.067,7.721c-.06.654.96.65,1.021,0Z" transform="translate(-187.079 -166.936)" fill="#e6e6e6"/>
      <circle id="Ellipse_13" data-name="Ellipse 13" cx="6.463" cy="6.463" r="6.463" transform="translate(28.811 196.961)" fill="#6c63ff"/>
      <path id="Path_93" data-name="Path 93" d="M210.163,408.641a54.356,54.356,0,0,1,4.5-17.155q1.015-2.268,2.235-4.436a.331.331,0,0,0-.572-.334,55.106,55.106,0,0,0-6.132,16.917q-.46,2.487-.692,5.009C209.462,409.065,210.124,409.062,210.163,408.641Z" transform="translate(-187.079 -166.936)" fill="#e6e6e6"/>
      <circle id="Ellipse_14" data-name="Ellipse 14" cx="4.193" cy="4.193" r="4.193" transform="translate(27.229 212.789)" fill="#6c63ff"/>
      <path id="Path_94" data-name="Path 94" d="M209.327,408.244a54.356,54.356,0,0,1-7-16.293q-.594-2.413-.966-4.873a.331.331,0,0,0-.656.088,55.106,55.106,0,0,0,5.57,17.11q1.166,2.244,2.535,4.375C209.035,409.01,209.556,408.6,209.327,408.244Z" transform="translate(-187.079 -166.936)" fill="#e6e6e6"/>
      <circle id="Ellipse_15" data-name="Ellipse 15" cx="4.193" cy="4.193" r="4.193" transform="translate(9.424 212.495)" fill="#6c63ff"/>
      <path id="Path_95" data-name="Path 95" d="M196.456,411.954v-8.238a3.093,3.093,0,0,1,3.089-3.089h19.223a3.093,3.093,0,0,1,3.089,3.089v8.238a3.093,3.093,0,0,1-3.089,3.089H199.545a3.093,3.093,0,0,1-3.089-3.089Z" transform="translate(-187.079 -166.936)" fill="#f2f2f2"/>
      <path id="Path_96" data-name="Path 96" d="M402.929,421.569c0,4.515-3.66,6.568-8.176,6.568s-8.176-2.052-8.176-6.568,1.817-9.784,8.176-7.967C401.111,410.877,402.929,417.054,402.929,421.569Z" transform="translate(-187.079 -166.936)" fill="#ff6584"/>
      <path id="Path_97" data-name="Path 97" d="M394.355,415.717a1.307,1.307,0,0,1-1.3-1.139,54.828,54.828,0,0,0-2.392-8.457h0a1.169,1.169,0,0,1,.151-1.075,1.227,1.227,0,0,1,1.829-.132,1.17,1.17,0,0,1,.321.876c-.123,2.3,1.554,6.017,2.564,8.028a1.31,1.31,0,0,1-1.036,1.892,1.2,1.2,0,0,1-.139.007Z" transform="translate(-187.079 -166.936)" fill="#3f3d56"/>
      <path id="Path_98" data-name="Path 98" d="M400.4,410.643c2.838-2.323.611-7.076-2.941-6.164a2.868,2.868,0,0,0-1.279.682c-2.179,2.058-2.517,7.325-2.517,7.325A9.644,9.644,0,0,0,400.4,410.643Z" transform="translate(-187.079 -166.936)" fill="#3f3d56"/>
      <text id="Matheus_" data-name="Matheus " transform="translate(111.837 243)" fill="#484b4d" font-size="10" font-family="Poppins-Bold, Poppins" font-weight="700"><tspan x="0" y="0">Matheus </tspan></text>
    </g>
  </g>
</svg>
