<svg xmlns="http://www.w3.org/2000/svg" xmlns:xlink="http://www.w3.org/1999/xlink" width="100" height="80" viewBox="0 0 100 80"><defs><clipPath id="a"><rect width="100" height="80" fill="#a9aeb3" stroke="#707070" stroke-width="1"/></clipPath></defs><g clip-path="url(#a)"><g transform="translate(10)"><path d="M0,69.685A10.315,10.315,0,0,0,10.315,80H69.684A10.315,10.315,0,0,0,80,69.685V10.316A10.315,10.315,0,0,0,69.685,0H10.316A10.315,10.315,0,0,0,0,10.315V69.684Z" fill="#563d7c"/><path d="M33.174,35.387V24.058h9.972a15.512,15.512,0,0,1,2.747.238,6.858,6.858,0,0,1,2.341.848,4.522,4.522,0,0,1,1.628,1.7,5.632,5.632,0,0,1,.611,2.781,5.124,5.124,0,0,1-1.832,4.41,7.656,7.656,0,0,1-4.681,1.357H33.174ZM22.523,15.781V64.219H46a24.764,24.764,0,0,0,6.343-.814,16.965,16.965,0,0,0,5.495-2.51,12.364,12.364,0,0,0,3.833-4.376,13.329,13.329,0,0,0,1.425-6.343,13.422,13.422,0,0,0-2.2-7.767A11.643,11.643,0,0,0,54.2,37.9a12.073,12.073,0,0,0,4.919-4,10.611,10.611,0,0,0,1.662-6.106,12.993,12.993,0,0,0-1.119-5.7,9.309,9.309,0,0,0-3.155-3.7,13.615,13.615,0,0,0-4.884-2,30.155,30.155,0,0,0-6.309-.611H22.523ZM33.174,55.942v-13.3h11.6a8.974,8.974,0,0,1,5.563,1.594q2.1,1.594,2.1,5.325a6.657,6.657,0,0,1-.645,3.121,5.119,5.119,0,0,1-1.73,1.933,7.326,7.326,0,0,1-2.51,1.018,14.242,14.242,0,0,1-2.985.305h-11.4Z" fill="#fff"/></g></g></svg>