<svg xmlns="http://www.w3.org/2000/svg" xmlns:xlink="http://www.w3.org/1999/xlink" width="100" height="80" viewBox="0 0 100 80"><defs><clipPath id="a"><rect width="100" height="80" transform="translate(0 -0.199)" fill="#a9aeb3" stroke="#707070" stroke-width="1"/></clipPath></defs><g transform="translate(0 0.199)" clip-path="url(#a)"><g transform="translate(10)"><path d="M80,40A40,40,0,1,1,40,0,39.934,39.934,0,0,1,80,40Z" transform="translate(0)" fill="#f2f2f2"/><path d="M69.061,18.668,64.495,71.625a40.006,40.006,0,0,1-48.989,0L10.939,18.668Z" transform="translate(0)" fill="#006bc0"/><path d="M40,23.647V78.952L59.1,73.559l4.262-49.912Z" transform="translate(0)" fill="#0096dc"/><path d="M56.881,45.279H43.1l14.4-7.328.622-7.366H21.877l.634,7.51h14.55L23.1,45.076l.65,7.694h24.9l-.816,9.163L40,64.055l-8.163-2.286-.2-5.714h-7.6l.951,11.265L40,71.565,55.02,67.32l1.861-22.042Z" transform="translate(0)" fill="#fff"/><g transform="translate(23.115 2.449)"><path d="M25.836,10.5V5.279h7.51V2.449H23.115V13.334H33.346V10.5Z" transform="translate(-23.115 -2.449)" fill="#222123"/><path d="M37.741,6.708V5.4h7.47V2.449H34.979V9.2h7.333V10.5H34.979v2.83H45.21V6.708Z" transform="translate(-23.115 -2.449)" fill="#222123"/><path d="M49.414,6.708V5.4h7.469V2.449H46.652V9.2h7.333V10.5H46.652v2.83H56.884V6.708Z" transform="translate(-23.115 -2.449)" fill="#222123"/></g></g></g></svg>