<svg xmlns="http://www.w3.org/2000/svg" width="40.091" height="39.113" viewBox="0 0 40.091 39.113"><g transform="translate(0.046 -0.102)"><g transform="translate(0 0.147)"><path d="M37.317,10.45a19.913,19.913,0,0,0-7.278-7.279A19.562,19.562,0,0,0,20,.489,19.564,19.564,0,0,0,9.961,3.172,19.911,19.911,0,0,0,2.682,10.45,19.563,19.563,0,0,0,0,20.489,19.437,19.437,0,0,0,3.815,32.246a19.588,19.588,0,0,0,9.856,7.226,1.166,1.166,0,0,0,1.042-.182,1.018,1.018,0,0,0,.338-.781q0-.078-.013-1.406t-.013-2.317l-.6.1a7.641,7.641,0,0,1-1.445.091,11.012,11.012,0,0,1-1.81-.182,4.044,4.044,0,0,1-1.745-.781,3.3,3.3,0,0,1-1.146-1.6l-.26-.6a6.507,6.507,0,0,0-.82-1.328A3.142,3.142,0,0,0,6.067,29.5l-.182-.131a1.912,1.912,0,0,1-.338-.313,1.429,1.429,0,0,1-.234-.365q-.078-.183.13-.3a1.689,1.689,0,0,1,.755-.116l.521.078a3.8,3.8,0,0,1,1.289.625A4.2,4.2,0,0,1,9.27,30.332a4.59,4.59,0,0,0,1.445,1.628,3.066,3.066,0,0,0,1.706.56,7.405,7.405,0,0,0,1.484-.13A5.179,5.179,0,0,0,15.077,32a4.219,4.219,0,0,1,1.276-2.683,17.831,17.831,0,0,1-2.669-.469,10.628,10.628,0,0,1-2.448-1.016,7.011,7.011,0,0,1-2.1-1.744,8.385,8.385,0,0,1-1.367-2.734,13,13,0,0,1-.534-3.906A7.6,7.6,0,0,1,9.3,14.082,7,7,0,0,1,9.479,8.77a3.649,3.649,0,0,1,2.24.351,15.658,15.658,0,0,1,2.174,1q.69.416,1.107.7a18.807,18.807,0,0,1,10,0l.99-.625a14.015,14.015,0,0,1,2.4-1.146A3.413,3.413,0,0,1,30.5,8.77a6.933,6.933,0,0,1,.208,5.312,7.6,7.6,0,0,1,2.058,5.365,13.148,13.148,0,0,1-.534,3.919,8.059,8.059,0,0,1-1.38,2.734,7.28,7.28,0,0,1-2.11,1.732,10.648,10.648,0,0,1-2.448,1.016,17.812,17.812,0,0,1-2.669.469,4.638,4.638,0,0,1,1.354,3.7v5.494a1.037,1.037,0,0,0,.326.781,1.131,1.131,0,0,0,1.028.182,19.585,19.585,0,0,0,9.857-7.226A19.441,19.441,0,0,0,40,20.488,19.579,19.579,0,0,0,37.317,10.45Z" transform="translate(0 -0.489)" fill="#fff" stroke="#fffcfc" stroke-width="0.091"/></g></g></svg>