<svg xmlns="http://www.w3.org/2000/svg" xmlns:xlink="http://www.w3.org/1999/xlink" width="100" height="55" viewBox="0 0 100 55">
  <defs>
    <clipPath id="clip-path">
      <rect id="hard-skill_icon" width="100" height="55" rx="8" transform="translate(181)" fill="#fff" stroke="#707070" stroke-width="1"/>
    </clipPath>
  </defs>
  <g id="hardskill" transform="translate(-181)" clip-path="url(#clip-path)">
    <g id="skills" transform="translate(203.5)">
      <g id="Group_19" data-name="Group 19">
        <path id="Path_46" data-name="Path 46" d="M51.712,36.009a11.149,11.149,0,0,0-11.145-2.766l-3.926-3.926L53.8,12.161a4.108,4.108,0,0,0,0-5.81L48.648,1.2a4.108,4.108,0,0,0-5.81,0L25.682,18.359l-3.926-3.926A11.127,11.127,0,0,0,6.637.973,1.074,1.074,0,0,0,6.31,2.715L11.435,7.84,7.812,11.463,2.687,6.339a1.074,1.074,0,0,0-1.742.326A11.127,11.127,0,0,0,14.4,21.784l3.926,3.926L5.191,38.851a1.085,1.085,0,0,0-.261.424L.252,53.39A1.074,1.074,0,0,0,1.61,54.748l14.1-4.674a1.3,1.3,0,0,0,.437-.265l13.14-13.14L33.215,40.6a11.127,11.127,0,0,0,15.119,13.46,1.074,1.074,0,0,0,.326-1.743l-5.125-5.125,3.623-3.623,5.125,5.125a1.074,1.074,0,0,0,1.742-.326,11.127,11.127,0,0,0-2.315-12.354ZM44.358,2.722a1.96,1.96,0,0,1,2.771,0l5.148,5.148a1.96,1.96,0,0,1,0,2.771l-3.486,3.486-7.92-7.92ZM15.45,19.792a1.074,1.074,0,0,0-1.14-.245A8.983,8.983,0,0,1,2.387,9.077l4.665,4.665a1.074,1.074,0,0,0,1.519,0L13.714,8.6a1.074,1.074,0,0,0,0-1.519L9.049,2.416A8.983,8.983,0,0,1,19.518,14.338a1.074,1.074,0,0,0,.245,1.14l4.4,4.4L19.85,24.192ZM2.964,52.036l1.554-4.689,3.135,3.135Zm6.971-2.31-4.66-4.66L6.422,41.6,13.4,48.577Zm5.455-2.2-3.2-3.2L22.7,33.815A1.074,1.074,0,0,0,21.185,32.3L10.67,42.811l-3.2-3.2L39.353,7.727l.087.087,3.114,3.114-14.5,14.5a1.074,1.074,0,1,0,1.519,1.519l14.5-14.5,3.2,3.2Zm37.194-1.579-4.665-4.665a1.074,1.074,0,0,0-1.519,0l-5.142,5.142a1.074,1.074,0,0,0,0,1.519l4.665,4.665A8.983,8.983,0,0,1,35.453,40.69a1.074,1.074,0,0,0-.245-1.14l-4.4-4.4,4.313-4.313,4.4,4.4a1.074,1.074,0,0,0,1.14.245A8.983,8.983,0,0,1,52.584,45.951Z" fill="#fff"/>
        <g id="Group_18" data-name="Group 18">
          <path id="Path_47" data-name="Path 47" d="M25.392,30.682a1.074,1.074,0,1,1,1.053-.865A1.084,1.084,0,0,1,25.392,30.682Z" fill="#fff"/>
        </g>
      </g>
    </g>
  </g>
</svg>
