<svg xmlns="http://www.w3.org/2000/svg" xmlns:xlink="http://www.w3.org/1999/xlink" width="100" height="80" viewBox="0 0 100 80"><defs><clipPath id="a"><rect width="100" height="80" transform="translate(0 -0.199)" fill="#a9aeb3" stroke="#707070" stroke-width="1"/></clipPath></defs><g transform="translate(0 0.199)" clip-path="url(#a)"><path d="M5.975,0A1.2,1.2,0,0,0,4.757,1.331l6.2,69.528a2.081,2.081,0,0,0,1.407,1.689l26.3,7.3a5.7,5.7,0,0,0,2.577,0l26.384-7.316a2.081,2.081,0,0,0,1.407-1.689L75.243,1.331A1.2,1.2,0,0,0,74.025,0ZM62.042,15.946c-.059.653-.16,1.787-.225,2.519l-.163,1.824c-.066.732-.159,1.779-.209,2.326s-.1,1-.1,1H28.811a1.2,1.2,0,0,0-1.218,1.331l.573,6.4a1.494,1.494,0,0,0,1.456,1.331H59.356a1.071,1.071,0,0,1,1.083,1.188c-.06.653-.162,1.787-.227,2.519L58.371,57.035c-.066.732-.149,1.668-.185,2.079s-.646.908-1.355,1.1l-15.543,4.31-1.308.361c-.011,0-.6-.157-1.308-.353L23.112,60.219a2.081,2.081,0,0,1-1.407-1.689l-1-11.241a1.2,1.2,0,0,1,1.218-1.332h6.211a1.494,1.494,0,0,1,1.456,1.332l.393,4.4a2.063,2.063,0,0,0,1.409,1.68l7.278,1.965,1.3.349,1.3-.349,7.291-1.97a2.065,2.065,0,0,0,1.41-1.68l.791-8.817a1.2,1.2,0,0,0-1.217-1.332H21.526A1.493,1.493,0,0,1,20.071,40.2l-1.94-21.739c-.065-.732-.167-1.866-.225-2.519a1.145,1.145,0,0,1,1.231-1.188H60.811A1.144,1.144,0,0,1,62.042,15.946Z" transform="translate(10)" fill="#dd512a"/></g></svg>