<svg xmlns="http://www.w3.org/2000/svg" xmlns:xlink="http://www.w3.org/1999/xlink" width="58" height="58" viewBox="0 0 58 58"><defs><linearGradient id="a" x1="-0.064" y1="1.055" x2="1.114" y2="-0.105" gradientUnits="objectBoundingBox"><stop offset="0" stop-color="#fed576"/><stop offset="0.26" stop-color="#f47133"/><stop offset="0.61" stop-color="#bc3081"/><stop offset="1" stop-color="#4c63d2"/></linearGradient></defs><rect width="58" height="58" rx="13.018" fill="url(#a)"/><path d="M20.09,10.045H38.171c.4.2,1,.2,1.406.4a9.6,9.6,0,0,1,7.634,6.63,16.072,16.072,0,0,1,.6,3.014V37.769A13.942,13.942,0,0,1,45.4,44a11.07,11.07,0,0,1-9.041,3.817H21.3A11.029,11.029,0,0,1,13.862,45.4a11.07,11.07,0,0,1-3.817-8.96V22.38a15.208,15.208,0,0,1,.2-3.014,9.844,9.844,0,0,1,7.634-8.639ZM13.862,29.131v7.835A6.871,6.871,0,0,0,21.3,44.4q7.835.3,15.67,0c4.621,0,7.232-2.813,7.433-7.433q.3-7.835,0-15.67a7.072,7.072,0,0,0-7.433-7.433q-7.835-.3-15.67,0A6.871,6.871,0,0,0,13.862,21.3Z" fill="#fff"/><path d="M19.367,29.211a9.864,9.864,0,0,1,9.844-9.844,10.045,10.045,0,0,1,9.844,9.844,9.864,9.864,0,0,1-9.844,9.844,10.045,10.045,0,0,1-9.844-9.844Zm9.844-6.228a6.127,6.127,0,1,0,6.027,6.027,6.027,6.027,0,0,0-6.027-6.027Z" fill="#fff"/><path d="M36.845,18.965a2.33,2.33,0,0,1,2.411-2.411,2.592,2.592,0,0,1,2.411,2.411,2.411,2.411,0,1,1-4.822,0Z" fill="#fff"/></svg>