<svg xmlns="http://www.w3.org/2000/svg" width="58" height="58" viewBox="0 0 58 58"><g transform="translate(-0.696 -0.798)"><path d="M58.7,29.8a29,29,0,1,1-29-29A29,29,0,0,1,58.7,29.8Zm0,0" fill="#0a7bba"/><path d="M47.022,32.13V44.087H40.09V32.933c0-2.8-1-4.715-3.511-4.715a3.793,3.793,0,0,0-3.554,2.537,4.694,4.694,0,0,0-.23,1.689V44.087H25.862s.093-18.893,0-20.849H32.8v2.955c-.013.023-.033.045-.045.068H32.8v-.068a6.883,6.883,0,0,1,6.247-3.445C43.6,22.748,47.022,25.729,47.022,32.13ZM18.612,13.189a3.612,3.612,0,1,0-.091,7.2h.043a3.613,3.613,0,1,0,.048-7.2ZM15.1,44.087H22.03V23.238H15.1Zm0,0" fill="#f2f2f2"/></g></svg>