<svg xmlns="http://www.w3.org/2000/svg" xmlns:xlink="http://www.w3.org/1999/xlink" width="100" height="80" viewBox="0 0 100 80"><defs><clipPath id="a"><rect width="100" height="80" transform="translate(782 532)" fill="#a9aeb3" stroke="#707070" stroke-width="1"/></clipPath></defs><g transform="translate(-782 -532)" clip-path="url(#a)"><g transform="translate(789.978 529.312)"><path d="M56.459,49.95c.415-3.455.291-3.962,2.864-3.4l.653.058a14.885,14.885,0,0,0,6.088-1.025c3.274-1.519,5.215-4.056,1.987-3.389-7.364,1.519-7.87-.974-7.87-.974C67.957,29.681,71.208,15.036,68.4,11.451,60.751,1.673,47.5,6.3,47.283,6.417l-.071.014A26.172,26.172,0,0,0,42.3,5.919a12.138,12.138,0,0,0-7.779,2.328S10.891-1.489,11.99,20.49c.234,4.676,6.7,35.379,14.416,26.1,2.819-3.391,5.544-6.258,5.544-6.258a7.152,7.152,0,0,0,4.672,1.192l.131-.112a5.11,5.11,0,0,0,.053,1.32c-1.988,2.221-1.4,2.611-5.377,3.429-4.02.829-1.658,2.3-.117,2.689,1.87.468,6.194,1.131,9.116-2.961l-.116.467c.78.624.727,4.483.837,7.24a26.05,26.05,0,0,0,.858,6.848c.562,1.517,1.225,5.424,6.447,4.305,4.364-.936,7.7-2.282,8-14.8"/><path d="M46.755,67.478a6.653,6.653,0,0,1-4.727-1.756,9.066,9.066,0,0,1-2.252-3.978l-.141-.418A26.963,26.963,0,0,1,38.622,53.7c-.02-.494-.034-1-.049-1.544-.011-.395-.025-.89-.045-1.409a9.952,9.952,0,0,1-2.624.83,12.631,12.631,0,0,1-5.2-.269,6.069,6.069,0,0,1-3.388-2.02,5.437,5.437,0,0,1-5.5,1.3c-2.037-.68-3.861-2.588-5.575-5.837a52.433,52.433,0,0,1-3.511-8.96A84.4,84.4,0,0,1,9.462,20.616c-.343-6.846,1.5-11.742,5.476-14.55C21.211,1.635,30.715,4.24,34.18,5.423a15.063,15.063,0,0,1,8.161-2.037,29.791,29.791,0,0,1,4.715.435,27.122,27.122,0,0,1,8.03-1.131c6.389.076,11.683,2.566,15.309,7.2,2.588,3.307,1.309,10.249.315,14.094a63,63,0,0,1-6.852,16.167,17.943,17.943,0,0,0,3.682-.439c3.318-.685,4.288,1.094,4.552,1.89,1.055,3.2-3.531,5.61-4.962,6.274a17.366,17.366,0,0,1-7.269,1.257l-.107-.007-.643-.056-.064.536-.061.525c-.164,6.345-1.071,10.364-2.936,13.02-1.955,2.783-4.672,3.564-7.066,4.077a10.6,10.6,0,0,1-2.23.251Zm-4.86-23.1c1.491,1.193,1.622,3.438,1.738,7.634.014.523.028,1.019.047,1.482a27.4,27.4,0,0,0,.7,6.07c.073.2.138.4.206.605.573,1.754.86,2.634,3.336,2.1,2.079-.445,3.148-.845,3.984-2.036,1.216-1.732,1.9-5.214,2.021-10.353l2.529.062-2.512-.3.074-.627c.241-2.067.414-3.561,1.8-4.549a4.29,4.29,0,0,1,3.379-.534A3.781,3.781,0,0,1,57.7,41.721l-.211-1.039.592-.88a57.638,57.638,0,0,0,7.726-17.083c1.536-5.95,1.068-9.11.6-9.708-6.2-7.926-16.959-4.654-18.082-4.282l-.19.1-.952.178-.488-.1a23.9,23.9,0,0,0-4.439-.46,9.607,9.607,0,0,0-6.208,1.815l-1.154.875-1.34-.552c-2.861-1.17-11.268-3.523-15.7-.381-2.462,1.744-3.584,5.161-3.334,10.158a81.706,81.706,0,0,0,3.051,13.949c2.555,8.369,4.877,11.148,5.846,11.472.169.057.608-.284,1.045-.808C27.3,41.56,30,38.713,30.113,38.593l1.465-1.541,1.771,1.177a4.682,4.682,0,0,0,2.31.794l4.224-3.6-.612,6.244a2.567,2.567,0,0,0,.035.685l.184,1.184-.8.892-.092.1,2.32,1.072.973-1.217Z"/><path d="M68.053,42.191c-7.364,1.519-7.871-.974-7.871-.974C67.958,29.68,71.208,15.035,68.4,11.45,60.751,1.672,47.5,6.3,47.283,6.417l-.072.012A26.29,26.29,0,0,0,42.3,5.919a12.136,12.136,0,0,0-7.778,2.328S10.89-1.488,11.989,20.49c.234,4.676,6.7,35.379,14.416,26.1,2.819-3.391,5.544-6.258,5.544-6.258a7.151,7.151,0,0,0,4.672,1.192l.132-.112a5.167,5.167,0,0,0,.053,1.32c-1.987,2.221-1.4,2.611-5.376,3.429-4.02.829-1.659,2.3-.116,2.689,1.869.468,6.194,1.131,9.115-2.961l-.117.467c.779.624,1.326,4.057,1.234,7.169s-.153,5.249.461,6.918,1.225,5.424,6.448,4.305c4.364-.936,6.625-3.359,6.94-7.4.223-2.874.728-2.449.76-5.019l.406-1.217c.467-3.9.074-5.153,2.763-4.568l.653.057a14.877,14.877,0,0,0,6.089-1.025c3.274-1.519,5.215-4.056,1.988-3.389Z" fill="#336791"/><path d="M47.019,65.918c-4.354,0-5.733-3.447-6.3-4.857-.825-2.066-1-10.084-.82-16.66a.844.844,0,1,1,1.687.047c-.212,7.584.089,14.457.7,15.985.954,2.385,2.4,4.471,6.492,3.595,3.884-.833,5.338-2.306,5.986-6.06.5-2.882,1.48-11.079,1.6-12.7a.844.844,0,0,1,1.683.125c-.126,1.684-1.1,9.866-1.621,12.859-.765,4.435-2.742,6.447-7.295,7.423a10.152,10.152,0,0,1-2.115.239ZM23.413,49.08a3.508,3.508,0,0,1-1.119-.185c-2.828-.944-5.521-5.549-8.006-13.689A82.578,82.578,0,0,1,11.094,20.44c-.312-6.231,1.293-10.64,4.77-13.1C22.743,2.462,34.315,7.1,34.8,7.3a.844.844,0,0,1-.638,1.562h0c-.112-.046-11.208-4.491-17.329-.15-2.973,2.108-4.338,6.024-4.058,11.641A81.953,81.953,0,0,0,15.9,34.714c2.218,7.267,4.743,11.853,6.926,12.58.342.115,1.385.462,2.877-1.33,2.8-3.375,5.382-6.068,5.408-6.1a.844.844,0,0,1,1.219,1.167c-.026.026-2.563,2.68-5.329,6.007a4.708,4.708,0,0,1-3.589,2.037Zm36.717-7.11a.845.845,0,0,1-.7-1.316C67.291,28.99,70.05,14.9,67.687,11.878c-2.974-3.8-7.175-5.786-12.483-5.9a23.422,23.422,0,0,0-7.566,1.094l-.128.052a.846.846,0,0,1-.722-1.52l.227-.093-.011,0,.012,0a24.493,24.493,0,0,1,7.969-1.224c5.875.062,10.727,2.328,14.032,6.551,1.564,2,1.567,6.6.01,12.633a61.154,61.154,0,0,1-8.2,18.127.842.842,0,0,1-.7.372Zm.4,5.4a6.819,6.819,0,0,1-3.265-.62,1.691,1.691,0,0,1-.9-1.366c-.2-3.548,1.756-4.166,2.754-4.448-.139-.21-.337-.458-.542-.713a12.578,12.578,0,0,1-1.994-3.215c-.1-.232-.4-.774-.747-1.4-1.893-3.394-5.831-10.457-3.3-14.074,1.171-1.674,3.5-2.332,6.938-1.965-1.01-3.079-5.823-12.71-17.242-12.9A11.03,11.03,0,0,0,33.865,9.8C29.126,14.591,29.3,23.25,29.3,23.336a.844.844,0,0,1-1.687.044C27.6,23,27.425,13.909,32.666,8.617A12.657,12.657,0,0,1,42.26,4.982a19.323,19.323,0,0,1,14.667,6.929c2.9,3.372,4.318,7.093,4.435,8.333a.94.94,0,0,1-.709,1.135l-.3.007c-3.372-.54-5.534-.165-6.429,1.113-1.924,2.75,1.8,9.431,3.392,12.284.406.728.7,1.253.833,1.578a10.962,10.962,0,0,0,1.752,2.8A4.774,4.774,0,0,1,60.945,40.9c.069.121,1.053,1.575,6.886.371,1.462-.3,2.339-.043,2.607.767.527,1.595-2.431,3.454-4.068,4.215a15.307,15.307,0,0,1-5.838,1.114Zm-2.483-2.126c.185.187,1.11.509,3.028.427a13.416,13.416,0,0,0,4.582-.945,9.657,9.657,0,0,0,2.778-1.846l-.265.049c-3.73.77-6.368.668-7.841-.305a3.165,3.165,0,0,1-.286-.212,4.129,4.129,0,0,1-.412.134c-.836.234-1.7.477-1.584,2.7Zm-24.1,4.714a11.936,11.936,0,0,1-2.9-.376c-1.032-.258-2.771-1.035-2.745-2.311.03-1.432,2.112-1.861,2.9-2.023,2.831-.583,3.016-.817,3.9-1.94.258-.328.579-.735,1.016-1.225a2.842,2.842,0,0,1,2.112-1.1,3.16,3.16,0,0,1,1.235.295,3.628,3.628,0,0,1,1.967,2.362,3.029,3.029,0,0,1-.376,2.647,8.422,8.422,0,0,1-7.11,3.665Zm-3.819-2.613a3.968,3.968,0,0,0,1.331.6,10.319,10.319,0,0,0,2.488.325,6.716,6.716,0,0,0,5.737-2.959,1.429,1.429,0,0,0,.127-1.2,2.008,2.008,0,0,0-.991-1.268,1.643,1.643,0,0,0-.59-.167c-.093,0-.376,0-.854.534-.4.45-.693.818-.949,1.143-1.1,1.4-1.607,1.874-4.886,2.55a5.31,5.31,0,0,0-1.414.443Zm6.488-3.892a.844.844,0,0,1-.833-.716,3.957,3.957,0,0,1-.042-.423,8.249,8.249,0,0,1-5.8-2.605,9.432,9.432,0,0,1-2.485-7.894,37.244,37.244,0,0,0,.19-7.525c-.025-.421-.043-.725-.041-.936,0-.267.007-.975,2.374-2.175a13.194,13.194,0,0,1,4.374-1.362c3.056-.315,5.07,1.045,5.672,3.832,1.627,7.525.129,10.853-.965,13.283-.2.452-.4.88-.55,1.293l-.136.366a9.063,9.063,0,0,0-.924,3.889.845.845,0,0,1-.706.963l-.129.009ZM29.306,23.586l.033.6a38.78,38.78,0,0,1-.2,7.859,7.755,7.755,0,0,0,2.032,6.492A6.56,6.56,0,0,0,35.9,40.627h.036A23.2,23.2,0,0,1,36.8,38l.135-.363c.174-.467.378-.92.593-1.4,1.053-2.34,2.364-5.253.854-12.234a2.831,2.831,0,0,0-2.216-2.446c-2.448-.541-6.1,1.3-6.861,2.028Zm5.093-.358c-.042.3.547,1.095,1.314,1.2a1.415,1.415,0,0,0,1.464-.814c.041-.3-.547-.627-1.315-.734S34.44,22.93,34.4,23.228Zm1.49,1.5-.215-.015a2.026,2.026,0,0,1-1.286-.8,1.1,1.1,0,0,1-.267-.716c.054-.389.528-.622,1.269-.622a3.82,3.82,0,0,1,.512.036,3.123,3.123,0,0,1,1.058.328c.481.269.517.569.5.724a1.645,1.645,0,0,1-1.566,1.068Zm-1.211-1.445a1.483,1.483,0,0,0,1.073.873l.137.01a1.216,1.216,0,0,0,1.005-.573,1.7,1.7,0,0,0-1.071-.427,3.1,3.1,0,0,0-.434-.032,1.211,1.211,0,0,0-.71.148Zm23.06-.659c.041.3-.546,1.1-1.314,1.2a1.417,1.417,0,0,1-1.465-.814c-.041-.3.548-.627,1.315-.733S57.7,22.322,57.739,22.62Zm-1.49,1.354a1.517,1.517,0,0,1-1.427-.947c-.06-.447.676-.787,1.435-.892a3.518,3.518,0,0,1,.492-.035c.655,0,1.088.192,1.131.5a1.142,1.142,0,0,1-.391.789,1.843,1.843,0,0,1-1.043.571l-.2.013Zm.5-1.594a3.374,3.374,0,0,0-.453.032c-.763.106-1.217.412-1.2.576a1.306,1.306,0,0,0,1.149.7l.157-.011a1.569,1.569,0,0,0,.878-.487.973.973,0,0,0,.316-.557c-.014-.1-.295-.258-.852-.258Zm2.1,17.369a.844.844,0,0,1-.7-1.313c1.8-2.684,1.467-5.421,1.15-8.067a22.761,22.761,0,0,1-.239-3.413,23.75,23.75,0,0,1,.324-3.02,15.425,15.425,0,0,0,.26-3.337.844.844,0,1,1,1.685-.091,17.005,17.005,0,0,1-.278,3.684,22.381,22.381,0,0,0-.306,2.817,21.3,21.3,0,0,0,.228,3.157c.339,2.815.722,6.005-1.423,9.207a.844.844,0,0,1-.7.375Z" fill="#fff"/><path d="M9.142,11.3" fill="none" stroke="#fff" stroke-linecap="round" stroke-linejoin="round" stroke-width="1.97"/><path d="M1.861,67.75a17.223,17.223,0,0,1,2.852-.222,4.728,4.728,0,0,1,3.227.956,3.094,3.094,0,0,1,1.007,2.408,3.387,3.387,0,0,1-.888,2.458,4.767,4.767,0,0,1-3.517,1.263,5.1,5.1,0,0,1-1.194-.1v4.61H1.861V67.75ZM3.347,73.3a4.981,4.981,0,0,0,1.229.12c1.792,0,2.885-.871,2.885-2.458,0-1.519-1.076-2.253-2.714-2.253a6.233,6.233,0,0,0-1.4.119V73.3Zm14.6,1.622a4.039,4.039,0,0,1-4.115,4.388,3.928,3.928,0,0,1-3.961-4.251,4.035,4.035,0,0,1,4.1-4.387A3.913,3.913,0,0,1,17.943,74.92Zm-6.555.085c0,1.81,1.041,3.175,2.51,3.175,1.434,0,2.509-1.349,2.509-3.209,0-1.4-.7-3.175-2.475-3.175s-2.543,1.639-2.543,3.209Zm8.245,2.578a3.937,3.937,0,0,0,1.98.6c1.093,0,1.6-.546,1.6-1.229,0-.717-.426-1.11-1.536-1.519C20.2,74.9,19.5,74.084,19.5,73.093c0-1.332,1.076-2.424,2.851-2.424a4.127,4.127,0,0,1,2.032.512L24,72.274a3.216,3.216,0,0,0-1.69-.478c-.888,0-1.383.512-1.383,1.127,0,.683.5.99,1.571,1.4,1.434.546,2.168,1.263,2.168,2.492,0,1.451-1.127,2.475-3.09,2.475a4.712,4.712,0,0,1-2.322-.563l.374-1.144Zm8.775-9.1v2.373h2.15V72h-2.15v4.456c0,1.024.29,1.6,1.127,1.6a3.342,3.342,0,0,0,.871-.1l.068,1.127a3.674,3.674,0,0,1-1.331.2,2.083,2.083,0,0,1-1.622-.632,3.064,3.064,0,0,1-.58-2.151V72H25.66V70.856h1.28v-1.98l1.468-.393Zm10.857,2.374c-.035.6-.068,1.263-.068,2.271v4.8c0,1.895-.376,3.056-1.178,3.773a4.38,4.38,0,0,1-3,.99,5.337,5.337,0,0,1-2.749-.683l.376-1.144a4.659,4.659,0,0,0,2.424.649c1.536,0,2.663-.8,2.663-2.885V77.7h-.034a2.95,2.95,0,0,1-2.629,1.383c-2.049,0-3.517-1.741-3.517-4.03,0-2.8,1.827-4.387,3.722-4.387A2.749,2.749,0,0,1,37.849,72.1h.034l.068-1.246h1.315Zm-1.554,3.261a2.139,2.139,0,0,0-.085-.683,2.164,2.164,0,0,0-2.1-1.588c-1.435,0-2.458,1.212-2.458,3.124,0,1.622.819,2.97,2.441,2.97a2.2,2.2,0,0,0,2.083-1.536,2.614,2.614,0,0,0,.12-.8V74.118Zm3.875-.683c0-.973-.017-1.81-.068-2.578h1.315l.051,1.622h.068a2.479,2.479,0,0,1,2.288-1.81,1.62,1.62,0,0,1,.426.051v1.417a2.251,2.251,0,0,0-.511-.051,2.107,2.107,0,0,0-2.014,1.929,4.228,4.228,0,0,0-.068.7v4.4H41.587V73.435Zm6.249,1.827a2.647,2.647,0,0,0,2.833,2.868,5.43,5.43,0,0,0,2.288-.427l.256,1.076a6.692,6.692,0,0,1-2.749.512A3.837,3.837,0,0,1,46.4,75.125c0-2.492,1.468-4.456,3.875-4.456,2.7,0,3.414,2.373,3.414,3.892a5.666,5.666,0,0,1-.051.7h-5.8Zm4.4-1.076a2.14,2.14,0,0,0-2.083-2.441,2.491,2.491,0,0,0-2.305,2.441Z" fill="#f8f5f5"/><path d="M55.4,77.31a5.263,5.263,0,0,0,2.663.751c1.519,0,2.407-.8,2.407-1.963,0-1.076-.615-1.69-2.168-2.288-1.878-.666-3.039-1.639-3.039-3.261,0-1.793,1.485-3.124,3.722-3.124a5.228,5.228,0,0,1,2.544.563l-.41,1.212a4.583,4.583,0,0,0-2.185-.546c-1.571,0-2.168.939-2.168,1.724,0,1.076.7,1.6,2.288,2.219,1.946.752,2.936,1.69,2.936,3.38,0,1.775-1.315,3.312-4.029,3.312a5.951,5.951,0,0,1-2.937-.734L55.4,77.31Zm18.113,3.5c-1.554-.41-3.073-.871-4.4-1.332a2.2,2.2,0,0,0-.7-.171c-2.731-.1-5.07-2.117-5.07-5.821,0-3.687,2.253-6.06,5.36-6.06,3.124,0,5.156,2.424,5.156,5.821,0,2.953-1.366,4.848-3.278,5.514v.068c1.144.29,2.39.563,3.363.734Zm-1.229-7.494c0-2.3-1.194-4.678-3.636-4.678-2.51,0-3.739,2.322-3.722,4.815-.017,2.441,1.332,4.643,3.653,4.643C70.95,78.1,72.281,75.944,72.281,73.315Zm3.5-5.7h1.486v10.26h4.917V79.12h-6.4Z" fill="#336791"/></g></g></svg>