<svg xmlns="http://www.w3.org/2000/svg" xmlns:xlink="http://www.w3.org/1999/xlink" width="208" height="117" viewBox="0 0 208 117">
  <defs>
    <clipPath id="clip-path">
      <rect id="project" width="208" height="117" transform="translate(859 154)" fill="#fff" stroke="#707070" stroke-width="1"/>
    </clipPath>
  </defs>
  <g id="project-2" data-name="project" transform="translate(-859 -154)" clip-path="url(#clip-path)">
    <g id="project-3" data-name="project" transform="translate(879.689 130.189)">
      <path id="Path_49" data-name="Path 49" d="M32.715,141.811a3.905,3.905,0,0,1-3.429-2.038l-10.07-18.508a3.905,3.905,0,0,1-.474-1.867V40.354a3.905,3.905,0,0,1,3.908-3.905H42.788a3.905,3.905,0,0,1,3.905,3.905V119.4a3.905,3.905,0,0,1-.476,1.867L36.149,139.773a3.905,3.905,0,0,1-3.434,2.039ZM26.555,118.4l6.162,11.33,6.165-11.33V44.259H26.555Z" fill="#fff"/>
      <path id="Path_50" data-name="Path 50" d="M42.785,59.536H22.65a3.905,3.905,0,0,1,0-7.81H42.788a3.905,3.905,0,1,1,0,7.81Zm101.187,82.275H59.377a3.905,3.905,0,0,1-3.905-3.905V28.716a3.905,3.905,0,0,1,3.905-3.905H117a3.9,3.9,0,0,1,3.017,1.426l26.975,32.8a3.905,3.905,0,0,1,.89,2.479v76.386A3.905,3.905,0,0,1,143.972,141.811ZM63.28,134h76.787V62.926l-24.915-30.3H63.283Z" fill="#fff"/>
      <path id="Path_51" data-name="Path 51" d="M116.995,65.425a3.905,3.905,0,0,1-3.905-3.905v-32.8a3.905,3.905,0,0,1,7.81,0v32.8a3.905,3.905,0,0,1-3.905,3.905Z" fill="#fff"/>
      <path id="Path_52" data-name="Path 52" d="M143.972,65.425H116.995a3.905,3.905,0,0,1,0-7.81h26.977a3.905,3.905,0,1,1,0,7.81Z" fill="#fff"/>
    </g>
  </g>
</svg>
