<svg xmlns="http://www.w3.org/2000/svg" xmlns:xlink="http://www.w3.org/1999/xlink" width="100" height="80" viewBox="0 0 100 80"><defs><clipPath id="a"><rect width="100" height="80" fill="#a9aeb3" stroke="#707070" stroke-width="1"/></clipPath></defs><g clip-path="url(#a)"><g transform="translate(15.825 0)"><path d="M20.041,60.982a1.189,1.189,0,0,0-.657.2.794.794,0,0,0-.381.648.45.45,0,0,0,.052.274l-.019-.047L23.027,75a.914.914,0,0,0,.435.535,1.249,1.249,0,0,0,.609.147,1.062,1.062,0,0,0,1.062-.677h0l3.987-13v-.047c0,.066.019.028.019-.114a.8.8,0,0,0-.39-.649,1.224,1.224,0,0,0-.686-.215.818.818,0,0,0-.772.537l0,0L24.071,72.265,20.84,61.543a.729.729,0,0,0-.327-.441.909.909,0,0,0-.472-.119Zm31.785.668a1.1,1.1,0,1,0,1.133,1.1A1.121,1.121,0,0,0,51.826,61.65Zm-9.357,4.145a3.921,3.921,0,0,0-3.96,3.827v2.14a3.73,3.73,0,0,0,1.257,2.865A4.739,4.739,0,0,0,42.928,75.7a4.876,4.876,0,0,0,2.242-.494,2.4,2.4,0,0,0,.653-.475.88.88,0,0,0,.281-.6.91.91,0,0,0-.22-.578.81.81,0,0,0-.626-.326.9.9,0,0,0-.485.165c-.133.081-.257.171-.407.258a2.6,2.6,0,0,1-1.4.34,2.913,2.913,0,0,1-1.882-.6,1.955,1.955,0,0,1-.71-1.575v-.4H44.38a2.345,2.345,0,0,0,1.313-.261,1.747,1.747,0,0,0,.66-1.577,3.829,3.829,0,0,0-3.884-3.789Zm15.057,0a3.438,3.438,0,0,0-2.549.935A2.825,2.825,0,0,0,54.2,68.7a2.315,2.315,0,0,0,.855,1.893,5.055,5.055,0,0,0,1.725.781,7.155,7.155,0,0,1,1.549.575,1.06,1.06,0,0,1,.589,1.03.835.835,0,0,1-.322.708,2.128,2.128,0,0,1-1.334.337,2.8,2.8,0,0,1-1.583-.4c-.164-.1-.3-.206-.432-.3a.861.861,0,0,0-.506-.2.7.7,0,0,0-.568.326.962.962,0,0,0-.184.558,1,1,0,0,0,.3.666,2.453,2.453,0,0,0,.7.513A5.083,5.083,0,0,0,57.3,75.7a3.841,3.841,0,0,0,2.465-.736,2.559,2.559,0,0,0,.922-2.039,2.64,2.64,0,0,0-.845-2.062A4.571,4.571,0,0,0,58.1,70a10.684,10.684,0,0,1-1.576-.533c-.389-.2-.573-.39-.573-.822a1.08,1.08,0,0,1,.331-.759,1.728,1.728,0,0,1,1.268-.42,3.056,3.056,0,0,1,1.2.243c.153.063.286.128.412.182a.958.958,0,0,0,.41.108.772.772,0,0,0,.632-.384,1.014,1.014,0,0,0,.195-.576.748.748,0,0,0-.343-.586,2.489,2.489,0,0,0-.668-.345,5.588,5.588,0,0,0-1.86-.316Zm-27.3.116a.86.86,0,0,0-.941.788v5.1a3.941,3.941,0,0,0,7.882,0V66.68a.729.729,0,0,0-.3-.57,1.02,1.02,0,0,0-.623-.2,1.058,1.058,0,0,0-.627.2.722.722,0,0,0-.314.574V71.8a2.078,2.078,0,1,1-4.154,0V66.7a.728.728,0,0,0-.3-.567.99.99,0,0,0-.624-.221Zm21.6,0a1.028,1.028,0,0,0-.629.192.738.738,0,0,0-.293.578v9.4a4.661,4.661,0,0,1-.2,1.655c-.155.358-.338.517-.86.517a.875.875,0,0,0-.846.885.852.852,0,0,0,.229.592.973.973,0,0,0,.713.272,2.5,2.5,0,0,0,2.2-1.155,5.178,5.178,0,0,0,.629-2.766v-9.4a.731.731,0,0,0-.317-.584,1.072,1.072,0,0,0-.625-.186ZM42.45,67.45a2.089,2.089,0,0,1,2.077,2.1.778.778,0,0,1-.024.225c-.012.034-.011.03-.028.041a1.589,1.589,0,0,1-.592.072H40.373v-.415A2.05,2.05,0,0,1,42.45,67.45Zm5.922,5.834a1.2,1.2,0,1,0,1.171,1.209A1.2,1.2,0,0,0,48.372,73.284Z" transform="translate(-5.669 0)" fill="#fff"/><g transform="translate(0)"><path d="M0,4.77l26.621.085,7.565,13.066L41.892,4.855l26.457-.084L34.263,63.584Zm67.8.34L54.8,5.122,34.252,40.392,13.718,5.122.5,5.111,34.256,62.722Zm-13.429,0L42.23,5.2,34.192,18.357,26.28,5.2l-12.172-.09L34.256,39.535ZM13.882,5.016l12.283,0,8.029,13.327,8-13.326,12.272,0L34.255,40.077" transform="translate(0 -4.77)" fill="none"/><path d="M13.882,5.016l12.283,0,8.029,13.327,8-13.326,12.272,0L34.255,40.077Z" transform="translate(0 -4.77)" fill="#35495e"/><path d="M.486,5.109l13.385-.091,20.372,35.06L54.455,5.02l13.408.014-33.623,57.7Z" transform="translate(0 -4.77)" fill="#41b883"/></g></g></g></svg>